<mxfile host="65bd71144e">
    <diagram name="Page-1" id="iogo8oQ_TW8h88tk4Kwf">
        <mxGraphModel dx="1430" dy="606" grid="1" gridSize="10" guides="1" tooltips="1" connect="1" arrows="1" fold="1" page="1" pageScale="1" pageWidth="827" pageHeight="1169" math="0" shadow="0">
            <root>
                <mxCell id="0"/>
                <mxCell id="1" parent="0"/>
                <mxCell id="jIKosQApK3H3hRsS3cyc-11" style="edgeStyle=orthogonalEdgeStyle;rounded=0;orthogonalLoop=1;jettySize=auto;html=1;entryX=0;entryY=0.5;entryDx=0;entryDy=0;" parent="1" source="jIKosQApK3H3hRsS3cyc-1" target="jIKosQApK3H3hRsS3cyc-3" edge="1">
                    <mxGeometry relative="1" as="geometry">
                        <Array as="points">
                            <mxPoint x="160" y="370"/>
                            <mxPoint x="160" y="170"/>
                        </Array>
                    </mxGeometry>
                </mxCell>
                <mxCell id="jIKosQApK3H3hRsS3cyc-12" style="edgeStyle=orthogonalEdgeStyle;rounded=0;orthogonalLoop=1;jettySize=auto;html=1;entryX=0;entryY=0.5;entryDx=0;entryDy=0;" parent="1" source="jIKosQApK3H3hRsS3cyc-1" target="jIKosQApK3H3hRsS3cyc-9" edge="1">
                    <mxGeometry relative="1" as="geometry">
                        <Array as="points">
                            <mxPoint x="120" y="370"/>
                            <mxPoint x="120" y="370"/>
                        </Array>
                    </mxGeometry>
                </mxCell>
                <mxCell id="jIKosQApK3H3hRsS3cyc-20" style="edgeStyle=orthogonalEdgeStyle;rounded=0;orthogonalLoop=1;jettySize=auto;html=1;entryX=0;entryY=0.5;entryDx=0;entryDy=0;" parent="1" source="jIKosQApK3H3hRsS3cyc-1" target="jIKosQApK3H3hRsS3cyc-18" edge="1">
                    <mxGeometry relative="1" as="geometry">
                        <Array as="points">
                            <mxPoint x="160" y="370"/>
                            <mxPoint x="160" y="590"/>
                        </Array>
                    </mxGeometry>
                </mxCell>
                <mxCell id="jIKosQApK3H3hRsS3cyc-1" value="Dev" style="shape=umlActor;verticalLabelPosition=bottom;verticalAlign=top;html=1;outlineConnect=0;" parent="1" vertex="1">
                    <mxGeometry x="50" y="340" width="30" height="60" as="geometry"/>
                </mxCell>
                <mxCell id="jIKosQApK3H3hRsS3cyc-2" value="Backstage" style="swimlane;whiteSpace=wrap;html=1;" parent="1" vertex="1">
                    <mxGeometry x="214" y="60" width="306" height="590" as="geometry"/>
                </mxCell>
                <mxCell id="jIKosQApK3H3hRsS3cyc-8" style="edgeStyle=orthogonalEdgeStyle;rounded=0;orthogonalLoop=1;jettySize=auto;html=1;entryX=0;entryY=0.5;entryDx=0;entryDy=0;" parent="jIKosQApK3H3hRsS3cyc-2" source="jIKosQApK3H3hRsS3cyc-3" target="jIKosQApK3H3hRsS3cyc-7" edge="1">
                    <mxGeometry relative="1" as="geometry"/>
                </mxCell>
                <mxCell id="jIKosQApK3H3hRsS3cyc-3" value="Create New&amp;nbsp;&lt;div&gt;App&lt;/div&gt;" style="shape=parallelogram;perimeter=parallelogramPerimeter;whiteSpace=wrap;html=1;fixedSize=1;fillColor=none;" parent="jIKosQApK3H3hRsS3cyc-2" vertex="1">
                    <mxGeometry x="46" y="80" width="120" height="60" as="geometry"/>
                </mxCell>
                <mxCell id="jIKosQApK3H3hRsS3cyc-10" style="edgeStyle=orthogonalEdgeStyle;rounded=0;orthogonalLoop=1;jettySize=auto;html=1;" parent="jIKosQApK3H3hRsS3cyc-2" source="jIKosQApK3H3hRsS3cyc-7" target="jIKosQApK3H3hRsS3cyc-9" edge="1">
                    <mxGeometry relative="1" as="geometry"/>
                </mxCell>
                <mxCell id="jIKosQApK3H3hRsS3cyc-7" value="App&amp;nbsp;&lt;div&gt;Manifest&lt;/div&gt;" style="shape=document;whiteSpace=wrap;html=1;boundedLbl=1;" parent="jIKosQApK3H3hRsS3cyc-2" vertex="1">
                    <mxGeometry x="146" y="160" width="120" height="80" as="geometry"/>
                </mxCell>
                <mxCell id="jIKosQApK3H3hRsS3cyc-17" style="edgeStyle=orthogonalEdgeStyle;rounded=0;orthogonalLoop=1;jettySize=auto;html=1;entryX=0;entryY=0.5;entryDx=0;entryDy=0;" parent="jIKosQApK3H3hRsS3cyc-2" source="jIKosQApK3H3hRsS3cyc-9" target="jIKosQApK3H3hRsS3cyc-16" edge="1">
                    <mxGeometry relative="1" as="geometry"/>
                </mxCell>
                <mxCell id="jIKosQApK3H3hRsS3cyc-9" value="Create New&amp;nbsp;&lt;div&gt;Feature&lt;/div&gt;" style="shape=parallelogram;perimeter=parallelogramPerimeter;whiteSpace=wrap;html=1;fixedSize=1;fillColor=none;" parent="jIKosQApK3H3hRsS3cyc-2" vertex="1">
                    <mxGeometry x="46" y="280" width="120" height="60" as="geometry"/>
                </mxCell>
                <mxCell id="jIKosQApK3H3hRsS3cyc-19" style="edgeStyle=orthogonalEdgeStyle;rounded=0;orthogonalLoop=1;jettySize=auto;html=1;" parent="jIKosQApK3H3hRsS3cyc-2" source="jIKosQApK3H3hRsS3cyc-16" target="jIKosQApK3H3hRsS3cyc-18" edge="1">
                    <mxGeometry relative="1" as="geometry"/>
                </mxCell>
                <mxCell id="jIKosQApK3H3hRsS3cyc-16" value="Feature&amp;nbsp;&lt;div&gt;Manifest&lt;/div&gt;" style="shape=document;whiteSpace=wrap;html=1;boundedLbl=1;" parent="jIKosQApK3H3hRsS3cyc-2" vertex="1">
                    <mxGeometry x="146" y="380" width="120" height="80" as="geometry"/>
                </mxCell>
                <mxCell id="jIKosQApK3H3hRsS3cyc-18" value="Finalize&amp;nbsp;&lt;div&gt;Feature&lt;/div&gt;" style="shape=parallelogram;perimeter=parallelogramPerimeter;whiteSpace=wrap;html=1;fixedSize=1;fillColor=none;" parent="jIKosQApK3H3hRsS3cyc-2" vertex="1">
                    <mxGeometry x="46" y="500" width="120" height="60" as="geometry"/>
                </mxCell>
                <mxCell id="jIKosQApK3H3hRsS3cyc-5" value="New GHCP-Finacle&amp;nbsp;&lt;div&gt;Repo&lt;/div&gt;" style="shape=document;whiteSpace=wrap;html=1;boundedLbl=1;" parent="1" vertex="1">
                    <mxGeometry x="620" y="130" width="120" height="80" as="geometry"/>
                </mxCell>
                <mxCell id="jIKosQApK3H3hRsS3cyc-6" style="edgeStyle=orthogonalEdgeStyle;rounded=0;orthogonalLoop=1;jettySize=auto;html=1;" parent="1" source="jIKosQApK3H3hRsS3cyc-3" target="jIKosQApK3H3hRsS3cyc-5" edge="1">
                    <mxGeometry relative="1" as="geometry"/>
                </mxCell>
                <mxCell id="jIKosQApK3H3hRsS3cyc-53" style="edgeStyle=orthogonalEdgeStyle;rounded=0;orthogonalLoop=1;jettySize=auto;html=1;" parent="1" source="jIKosQApK3H3hRsS3cyc-14" target="jIKosQApK3H3hRsS3cyc-45" edge="1">
                    <mxGeometry relative="1" as="geometry"/>
                </mxCell>
                <mxCell id="jIKosQApK3H3hRsS3cyc-54" value="Create&lt;div&gt;Draft&lt;/div&gt;" style="edgeLabel;html=1;align=center;verticalAlign=middle;resizable=0;points=[];" parent="jIKosQApK3H3hRsS3cyc-53" vertex="1" connectable="0">
                    <mxGeometry x="0.1929" y="-2" relative="1" as="geometry">
                        <mxPoint x="-12" y="-2" as="offset"/>
                    </mxGeometry>
                </mxCell>
                <mxCell id="jIKosQApK3H3hRsS3cyc-14" value="&lt;div&gt;&lt;span style=&quot;background-color: transparent; color: light-dark(rgb(0, 0, 0), rgb(255, 255, 255));&quot;&gt;LLD - Confluence&lt;/span&gt;&lt;/div&gt;" style="shape=tape;whiteSpace=wrap;html=1;" parent="1" vertex="1">
                    <mxGeometry x="620" y="320" width="120" height="100" as="geometry"/>
                </mxCell>
                <mxCell id="jIKosQApK3H3hRsS3cyc-15" style="edgeStyle=orthogonalEdgeStyle;rounded=0;orthogonalLoop=1;jettySize=auto;html=1;" parent="1" source="jIKosQApK3H3hRsS3cyc-9" target="jIKosQApK3H3hRsS3cyc-14" edge="1">
                    <mxGeometry relative="1" as="geometry"/>
                </mxCell>
                <mxCell id="jIKosQApK3H3hRsS3cyc-25" style="edgeStyle=orthogonalEdgeStyle;rounded=0;orthogonalLoop=1;jettySize=auto;html=1;entryX=1;entryY=0.5;entryDx=0;entryDy=0;" parent="1" source="jIKosQApK3H3hRsS3cyc-22" target="jIKosQApK3H3hRsS3cyc-5" edge="1">
                    <mxGeometry relative="1" as="geometry">
                        <Array as="points">
                            <mxPoint x="1160" y="170"/>
                        </Array>
                    </mxGeometry>
                </mxCell>
                <mxCell id="jIKosQApK3H3hRsS3cyc-26" value="Commit &amp;amp; Raise P-R" style="edgeLabel;html=1;align=center;verticalAlign=middle;resizable=0;points=[];" parent="jIKosQApK3H3hRsS3cyc-25" vertex="1" connectable="0">
                    <mxGeometry x="-0.3237" y="-4" relative="1" as="geometry">
                        <mxPoint y="89" as="offset"/>
                    </mxGeometry>
                </mxCell>
                <mxCell id="jIKosQApK3H3hRsS3cyc-22" value="requirement MD" style="shape=note;whiteSpace=wrap;html=1;backgroundOutline=1;darkOpacity=0.05;" parent="1" vertex="1">
                    <mxGeometry x="1120" y="535" width="80" height="100" as="geometry"/>
                </mxCell>
                <mxCell id="jIKosQApK3H3hRsS3cyc-23" style="edgeStyle=orthogonalEdgeStyle;rounded=0;orthogonalLoop=1;jettySize=auto;html=1;entryX=1;entryY=0.5;entryDx=0;entryDy=0;entryPerimeter=0;" parent="1" source="jIKosQApK3H3hRsS3cyc-14" target="jIKosQApK3H3hRsS3cyc-18" edge="1">
                    <mxGeometry relative="1" as="geometry">
                        <Array as="points">
                            <mxPoint x="680" y="590"/>
                        </Array>
                    </mxGeometry>
                </mxCell>
                <mxCell id="jIKosQApK3H3hRsS3cyc-28" value="Documentation Agent" style="shape=image;verticalLabelPosition=bottom;verticalAlign=top;imageAspect=0;aspect=fixed;image=data:image/png,iVBORw0KGgoAAAANSUhEUgAAAWIAAAFrCAYAAADrU4OyAAAKqmlDQ1BJQ0MgUHJvZmlsZQAASImVlwdQU+kWx79700NCC72G3gTpBJASQgu9NxshCRBKDIEAYsHC4gquBRERUBZ0qQquBZC1IKJYWBQU7G6QRUVZFws2LO8CQ9jdN++9eWfmu+c3J+ee73xn7jfzDwBkFZZAkAbLApDOzxKG+XhQY2LjqLhxgAcwIAB9oMNiZwroISEBALF5/3d7NwygGX/TfKbWv//+X02Ow81kAwCFIJzAyWSnI3wCWa/ZAmEWAKgGJK6XkyWY4T6EFYRIgwiLZzhpjt/OcMIso/GzORFhDIQ1AMCTWCxhEgAkYyROzWYnIXVIvghb8jk8PsK5CLump6/iINyBsDGSI0B4pj4t4S91kv5WM0FSk8VKkvDcWWYN78nLFKSxVv+f4/jflp4mmt/DCFmkZKFvGOKlkZn9nrrKX8L8hKDgeeZxZvNnOVnkGznP7ExG3DxnpoUz55nD8vSX1EkLCpjnRJ63JIeXxYyYZ26mV/g8C1eFSfZNFDLo88wSLvQgSo2UxJO5TEn9vOSI6HnO5kUFSXpLDfdfyGFI4kJRmOQsXL6Px8K+3pI5pGf+5ew8puTdrOQIX8kcWAv9c/n0hZqZMZLeOFxPr4WcSEm+IMtDspcgLUSSz03zkcQzs8Ml72YhH+fCuyGSGaaw/ELmGYQDOghEnpEgCPgAkMXNzZo5BGOVYLWQl5ScRaUjN41LZfLZFouo1pbWdgDM3Nu5z+LNndn7CCnhF2Kbkf2XmCFwbSEWmAjACWTecq0LMUMkRyYfgK5jbJEwey6GnnlgABHIAAWgCrSAHjAG5sAa2ANn4A68gB8IBhEgFqwAbJAM0oEQ5IC1YCMoBMVgJ9gDKkA1OAgawBFwDLSD0+A8uASugRtgCNwHYjAGXoBJ8A5MQxCEg8gQBVKFtCEDyAyyhmiQK+QFBUBhUCwUDyVBfEgErYU2Q8VQCVQB1UCN0M/QKeg8dAUagO5CI9A49Br6BKNgEqwAa8KG8GKYBtNhfzgCXg4nwRlwHlwAb4fL4Vr4MNwGn4evwUOwGH4BT6EASgqlhNJBmaNoKAYqGBWHSkQJUetRRagyVC2qBdWJ6kXdRIlRE6iPaCyagqaizdHOaF90JJqNzkCvR29DV6Ab0G3oHvRN9Ah6Ev0VQ8ZoYMwwThgmJgaThMnBFGLKMHWYk5iLmCHMGOYdFotVwhphHbC+2FhsCnYNdht2P7YV24UdwI5ip3A4nCrODOeCC8axcFm4Qtw+3GHcOdwgbgz3AS+F18Zb473xcXg+fhO+DN+EP4sfxD/FTxNkCQYEJ0IwgUNYTdhBOEToJFwnjBGmiXJEI6ILMYKYQtxILCe2EC8SHxDfSElJ6Uo5SoVK8aQ2SJVLHZW6LDUi9ZEkTzIlMUjLSCLSdlI9qYt0l/SGTCYbkt3JceQs8nZyI/kC+RH5gzRF2kKaKc2RzpeulG6THpR+KUOQMZChy6yQyZMpkzkuc11mQpYgayjLkGXJrpetlD0le1t2So4iZyUXLJcut02uSe6K3DN5nLyhvJc8R75A/qD8BflRCoqiR2FQ2JTNlEOUi5QxBayCkQJTIUWhWOGIQr/CpKK8oq1ilGKuYqXiGUWxEkrJUImplKa0Q+mY0rDSJ2VNZboyV3mrcovyoPJ7FXUVdxWuSpFKq8qQyidVqqqXaqrqLtV21YdqaDVTtVC1HLUDahfVJtQV1J3V2epF6sfU72nAGqYaYRprNA5q9GlMaWpp+mgKNPdpXtCc0FLSctdK0SrVOqs1rk3RdtXmaZdqn9N+TlWk0qlp1HJqD3VSR0PHV0ekU6PTrzOta6QbqbtJt1X3oR5Rj6aXqFeq1603qa+tH6i/Vr9Z/54BwYBmkGyw16DX4L2hkWG04RbDdsNnRipGTKM8o2ajB8ZkYzfjDONa41smWBOaSarJfpMbprCpnWmyaaXpdTPYzN6MZ7bfbGARZpHjIv6i2kW3zUnmdPNs82bzEQsliwCLTRbtFi8X6y+OW7xrce/ir5Z2lmmWhyzvW8lb+Vltsuq0em1tas22rrS+ZUO28bbJt+mweWVrZsu1PWB7x45iF2i3xa7b7ou9g73QvsV+3EHfId6hyuE2TYEWQttGu+yIcfRwzHc87fjRyd4py+mY05/O5s6pzk3Oz5YYLeEuObRk1EXXheVS4yJ2pbrGu/7oKnbTcWO51bo9dtdz57jXuT+lm9BT6IfpLz0sPYQeJz3eM5wY6xhdnihPH88iz34vea9IrwqvR9663knezd6TPnY+a3y6fDG+/r67fG8zNZlsZiNz0s/Bb51fjz/JP9y/wv9xgGmAMKAzEA70C9wd+CDIIIgf1B4MgpnBu4MfhhiFZIT8EooNDQmtDH0SZhW2Nqw3nBK+Mrwp/F2ER8SOiPuRxpGiyO4omahlUY1R76M9o0uixTGLY9bFXItVi+XFdsTh4qLi6uKmlnot3bN0bJndssJlw8uNlucuv7JCbUXaijMrZVayVh6Px8RHxzfFf2YFs2pZUwnMhKqESTaDvZf9guPOKeWMc124JdyniS6JJYnPklySdieNJ7sllyVP8Bi8Ct6rFN+U6pT3qcGp9anf0qLTWtPx6fHpp/jy/FR+zyqtVbmrBgRmgkKBOMMpY0/GpNBfWJcJZS7P7MhSQARSn8hY9J1oJNs1uzL7Q05UzvFcuVx+bt9q09VbVz/N8877aQ16DXtN91qdtRvXjqyjr6tZD61PWN+dr5dfkD+2wWdDw0bixtSNv26y3FSy6e3m6M2dBZoFGwpGv/P5rrlQulBYeHuL85bq79Hf877v32qzdd/Wr0WcoqvFlsVlxZ+3sbdd/cHqh/Ifvm1P3N6/w37HgZ3Ynfydw7vcdjWUyJXklYzuDtzdVkotLSp9u2flnitltmXVe4l7RXvF5QHlHfv09+3c97kiuWKo0qOytUqjamvV+/2c/YMH3A+0VGtWF1d/+pH3450an5q2WsPasoPYg9kHnxyKOtT7E+2nxjq1uuK6L/X8enFDWENPo0NjY5NG045muFnUPH542eEbRzyPdLSYt9S0KrUWHwVHRUef/xz/8/Ax/2Pdx2nHW04YnKg6STlZ1Aa1rW6bbE9uF3fEdgyc8jvV3encefIXi1/qT+ucrjyjeGbHWeLZgrPfzuWdm+oSdE2cTzo/2r2y+/6FmAu3ekJ7+i/6X7x8yfvShV5677nLLpdPX3G6cuoq7Wr7NftrbX12fSd/tfv1ZL99f9t1h+sdNxxvdA4sGTg76DZ4/qbnzUu3mLeuDQUNDQxHDt+5vey2+A7nzrO7aXdf3cu+N31/wwPMg6KHsg/LHmk8qv3N5LdWsb34zIjnSN/j8Mf3R9mjL37P/P3zWMET8pOyp9pPG59ZPzs97j1+4/nS52MvBC+mJwr/kPuj6qXxyxN/uv/ZNxkzOfZK+Orb621vVN/Uv7V92z0VMvXoXfq76fdFH1Q/NHykfez9FP3p6XTOZ9zn8i8mXzq/+n998C392zcBS8ialQIoZMGJiG54XQ8AORYAyg0AiEvndPWsQXP/BWYJ/Cee096zZg9AC+JmpA8ir0HjBkSDuCMyqAuJIT7CHcA2NpI1r4Fn9fqMBZgDMKPvAXi4XfgS/MPmtPxf+v6nB5Kqf/P/AjEkBevI0fuTAAAARGVYSWZNTQAqAAAACAACARIAAwAAAAEAAQAAh2kABAAAAAEAAAAmAAAAAAACoAIABAAAAAEAAAFioAMABAAAAAEAAAFrAAAAAOShDnIAAAIEaVRYdFhNTDpjb20uYWRvYmUueG1wAAAAAAA8eDp4bXBtZXRhIHhtbG5zOng9ImFkb2JlOm5zOm1ldGEvIiB4OnhtcHRrPSJYTVAgQ29yZSA2LjAuMCI+CiAgIDxyZGY6UkRGIHhtbG5zOnJkZj0iaHR0cDovL3d3dy53My5vcmcvMTk5OS8wMi8yMi1yZGYtc3ludGF4LW5zIyI+CiAgICAgIDxyZGY6RGVzY3JpcHRpb24gcmRmOmFib3V0PSIiCiAgICAgICAgICAgIHhtbG5zOnRpZmY9Imh0dHA6Ly9ucy5hZG9iZS5jb20vdGlmZi8xLjAvIgogICAgICAgICAgICB4bWxuczpleGlmPSJodHRwOi8vbnMuYWRvYmUuY29tL2V4aWYvMS4wLyI+CiAgICAgICAgIDx0aWZmOk9yaWVudGF0aW9uPjE8L3RpZmY6T3JpZW50YXRpb24+CiAgICAgICAgIDxleGlmOlBpeGVsWERpbWVuc2lvbj4zNTQ8L2V4aWY6UGl4ZWxYRGltZW5zaW9uPgogICAgICAgICA8ZXhpZjpQaXhlbFlEaW1lbnNpb24+MzYzPC9leGlmOlBpeGVsWURpbWVuc2lvbj4KICAgICAgPC9yZGY6RGVzY3JpcHRpb24+CiAgIDwvcmRmOlJERj4KPC94OnhtcG1ldGE+CibiPrgAAEAASURBVHgB7d13sCTVdT/wXliCEIgoRN6FJe2S47IIlpxXQpJRsowVXLYlla1yOZT/9Z/+S3+oyqFs10+SDQLbSIBFWrIEYhEsWYQlrgQiKCERhEQQv/lcdJfex7z3ZuZNz3T3nFvVb+bN9HTf+733fO+555x7el7RKYsWLXrTa5RAIBAIBAKB0SOwwehvGXcMBAKBQCAQKCMwv/zPoO+XLFlSHHDAAcU+++xTLFiwoNh1112LrbbaKh3z5s0rHFECgUAgEGgiAq+99lrxyiuvFM8991zx7LPPFo8//nixZs2a4v7770/HMNqUGHIQ08TixYuL5cuXF8uWLSuWLl1abLTRRsOoT1wjEAgEAoFGIICc77jjjmLVqlXFjTfemMh50Ir3TcSHHHJIcdZZZxUnn3xyscsuuwx63/hdIBAIBAKtQeCZZ54pVq5cWVx22WXF3Xff3Xe7eibiHXfcsfjYxz5WnH322cVuu+3W943iB4FAIBAItB2Bp556qrj44ouLCy+8MJkyem1vT0R83HHHFeeee25x/PHH93rdOC8QCAQCgYlFgKnivPPOSyaLXkCY1Vn3qU99qvjc5z6XnHC9XDDOCQQCgUBg0hGgtApc2HnnnYvzzz9/Vjg2dMY222zzD93O/PznP1986UtfKrbffvtuX8dngUAgEAgEAtMgsPXWWxdHHnlk+nb16tXTnPXWx9MScSbhzTbbbMYLxJeBQCAQCAQC3RHYeOONi0MPPbT43e9+V8xExl2JmDmCJhwk3B3c+DQQCAQCgV4RmD9/fnHQQQcVL774YnHfffd1/dk7dtadcMIJxWc/+9liiy226PqD+DAQCAQCgUCgPwTe/e53F5/5zGemDXhYj4jf9773FbThhQsX9neXODsQCAQCgUBgRgR233334o/+6I8KPDu1rEfEn/jEJ6Zl7Kk/jP8DgUAgEAgE+kNANAWenVrWEfHBBx9cfPjDH576ffwfCAQCgUAgMEQE8Cy+LZd1RLxixYrYslxGJt4HAoFAIFABAlJD4NtySUQsa9qpp55a/jzeBwKBQCAQCFSEwGmnnZayVebLJyJmt9hpp53yZ/EaCAQCgUAgUCECcvfg3VwSER999NH5/3gNBAKBQCAQGAECUgjnkojYzo8ogUAgEAgEAqND4LDDDiv222+/dMNExO9617tGd/e4UyAQCAQCgUCBd9cj4sAkEAgEAoFAYPQICJRQkkY8+tvHHQOBQCAQCAT22GOPBEIQcYyFQCAQCATGhMAOO+yQ7hxEPKYOiNsGAoFAIJDzTgQRx1gIBAKBQGBMCORAiSDiMXVA3DYQCAQCgY022iiBEEQcYyEQCAQCgTEjEEQ85g6I2wcCgUAgEEQcYyAQCAQCgTEjMH/M94/bBwLrIfDmm2+u+98DFx1vvPFG4XOH/2cqG2ywQTFv3rx0bLjhhoX/Hbn4LkogUDcEgojr1iMTXJ9MtpmMX3311eK3v/1tOpCxw//TkTHC3WSTTQoE7PDe4Um6Sibh/DrBUEfTa4ZAEHHNOqQt1UGmiPSVV14pXn755fTq/UsvvVT8+te/Tv+/8MIL677zhFvfvf7660nzhUMm3/zZm2/+rvP9GzNCNH/+hh3CfUsr9vTcTMp+hIB9tvnmm6eH4wod8lDH97znPWnfv6eW+87n+TuviDzIe0bY48s5IhBEPEcAJ/HnWXN9/bXXitc6xPma185R1mAzCSPYX/7ylwXSLb/3/89//vPiF7/4RSLgn/3sZ8WvfvWrdJ3pNN65Yk1jFi605ZZbFtttt10i3W222abYdtttExkj5K222iqRdPl9JmOEnDVs711row6xz++8Iuog67n20OT+Poh4cvt+4JbTVBHt888/XyDQ5557rvjJT35SPPPMM8UPf/jD4qmnniqeffbZZEKgzTrK2m1+j7ynvq+KhDXWtd1TvWnfWVtGqPl9WYv23oHAbUXdeeedi1133bWQ1NthVxRC33rrrZPW7NwogcAgCMTIGQS1CfgNrRdp/eY3v0naLG0VgSFdWiyNFpnRcn2ev//pT39aOGjBdSzIOBNyP/UzwSBd2rOD5oyAt9hii6RZ06D9n8/x3mebbrpp0pxDW+4H7ck7N7mQO0L3tqt68jCIFncQyARFQ80aLKJFqjRcRPTII48Ud955Z7F27dqkAQdwbyOw/fbbJ21Zftl999232HvvvdPDeN/73vcmoqZxZ22bhu2IEghAYM899yyCiGMsJASYGJgWkC7Cffjhh5MNl8bLueZAzLRf72nKUd5GgObLlkwLdnD6cf7RmGnQiJnAMW0wc/gs7Mpv4zfJ74yLME1M2Aiw+MnRC0jVwWnG5MCuWyZi5ocg3N4GCJwc8CwXBI2Y99prr3R4lDoipikzY3AWOnK0RpgwyuhNzvvQiCenr9dtivjxj39crFmzprjnnnuK22+/vbjlllvWxedm59nbIWNhtZrLEMlabzZLMFEwS4i6WLp0aXHEEUcUnl3mSQ2cgfn8udwzftssBMI00az+Gqi2zAica2y8jz/+eDI7iHDwWdaCETMCjjI6BBCyyAvasVdaMTszofTUhoULF6bPmDeitBuBIOKW9S+zA6ebJbJNFJbJnG2I9r777ivuvvvu4o477qhtREPLuqPv5ojEOOSQQ9Jx4IEHJg2ZCUMEBkJm5kDgYb7oG9pa/yCIuNbd03/laLXsv4899lgi3GuuuaZ49NFHk9kBMWeHG7NDlPohwHyRnXx2/Nk8QkhPOeWU4qCDDioWLVqUvo945fr13VxqpI/DWTcXBGvwW7kXRDb86Ec/WreZQngZMwQNmAMuSjMQMEGKvy7HYItmscKxotltt92KBQsWpEP0RY5TbkbropYzIRDOupnQqel3zA+0X7vbftExP/ywQ7zf+c53iu9+97vJAWdzRZT2IWBrNs34mGOOKY477rhkRxYGx/GXnYDta3X7WxSmiYb2MWcbjffWW28t7r///hRyxvHGHpzzNTS0aVHtGRDIeTLYjTn2OPlsIEHMHHw+i9I8BIKIG9RnzA/ifUU/PPHEEyn6YdWqVWnjBaccLTnK5CDAYUdDFp+MiG0Y2X333ZP5QnyyjSRRmoFAEHEz+inV8qGHHioQ7ze+8Y1Ewna5MU0wUQQJN6gjh1hVZMxxxzTByUegP/nJTxZHH310sXjx4iHeKS5VJQJBxFWiO8drI1jmhkzA2RnHFBHmhzmC28KfZ7PFkiVLku2YY2/ZsmUp74UscWzIUeqJACKOqIka9Q3Nlufc1mLeciR80003Fd/85jeTJ12ERJRAoBsCMuUZMxy23//+91N2uJwlz649dmVRFjToSDjUDcHxfhZRE+PFf727MzUQpptvvrm46qqrkglC7oefd3bBvdEh6DBBrAdX/DMNAoh2ww7hbtvZrWfbtPjjM888szj22GNTfgumjCj1QSA04hr0xZtC0TqHKAgZzx544IGUavKuu+5KpGwTRpRAoB8ETNi/60zqYsitrpi4xCJz9DJdcOyJstiwQ9jzIh1nP9BWdm6YJiqDdvYLswMTEI43iXeuuOKKpA1PzeA1+5XijECgOwImcoeVFTOXCAvasYgLDr68bbr7r+PTUSEQpolRIT3lPkiYFiz72WWXXZa0FRoM0wQTRZRAYNgIMEkIbZNoyA69FStWpOxvSTsOZ96w4e75emGa6Bmq4ZwoKQ9nnA0ZYoHvvffepKWwB9OMowQCVSJggn/66afTwQRmPNpOLcGQGGQbQjjzIqlQlb3Q/dqhEXfHpZJPacGWiddee21xwQUXFD/4wQ/SUzFEQxCKKIHAqBBAtpIK2Z23//77p/jjk08+OWV5i1C3UfXCW/cJjXiEeHOYcMZdf/31yRn34IMPpp1yoQmPsBPiVusQMPEbe8alVRplwArtxBNPTM48scdRRodAOOsqxlpaSs43g1xYGk3Y8jBKIFAHBLIz78knn0wrNPHIUqYyV8iD7Dl8UapHIEwTFWNMC7788ssTCUtLGc64igGPyw+MQHbmHXzwwSm64qyzzkra8cAXjB/2hECYJnqCqf+TslZx2223pQxpNGFPRo7cwP1jGb8YHQLZmScOWZIpx1FHHVUceeSRhUT1tlFHqQaBME0MEVd2N4NYEL3g+a997WvFDTfckP6PXXFDBDouVSkCFAaRPZLR22Yv5E24m9jjeFRTNdCHaWKIuHJ4cH54RNG3vvWt9KRkOYIjLniIIMelRoYAU4UcFXJVfOADH0iOPE8GCbvxcLsgTBNDxFM8JoeHDRpXXnllio4Y4uXjUoHAyBGgQHjwrEN8sRWfFJu0Yw86jTI8BMI0MSQs7ZITmnb++eenzRpDumxcJhCoBQIexcXcJqJCiNuhhx5ai3q1pRJBxHPsSaaIe+65J9mC5YugPUS6yjmCGj+vHQLGtLDLb3/72yn+XfSP5+dFvPFwuiqIeEAcOd/ke+XQkCtCZIRNGlECgbYiIIpCJJBXmnFKt9nJUbFNJ91m5DieW68HEQ+IH/vZddddV1x99dUpGTdSjhIITAICTBSZjD1H8eyzz05Z3Cah7VW1MYh4AGTXdh5fb3MGEqYhPPPMM+nZcQNcKn4SCDQOAbvxmCqMfUXOCptAFi5cmP6PP/0jEETcB2bMEQYgEv7617+eXmOTRh8AxqmtQUACq0cffTTl0s6rQfZipBxmiv67OYi4D8wsw6SslD0NGQtZixIITDICZIAseB4ec8Xpp5+eYo8nGZNB2h5E3CNqoiEMOER8xx13xHblHnGL09qNgAxuVoUeWCqLG8cdM4Vn5UXpHYEg4h6xMtDslvve976XEvf0+LM4LRCYCAQ8igkpy3PMfPeRj3xkIto9rEYGEc+CZI4TFiFx5513Fr/61a/CMTcLZvH15CHAZkw2yEh+Hl7EGfc+DoKIp8HKdk6xkjmN5apVq2LH3DRYxceBAARoxB4B5oGktkTLSSFrmyMevzTzGAkingYf9i4bNGztXLlyZSF5T5RAIBCYHQFxxkLcJAxCymzGkUJzZtyCiLvgQxNGvFJY3njjjcXTnTjh1+LJyl2Qio8CgXcigITJDNnJGdyQMs04SncEgoin4PJmJ1ZYmJoHe4qQYJKIEggEAv0hQHHh2BZ7v2TJkvTopc06pop5G2zQ34Um5OxApdTRHA4vvvRSesT9l7/85WQfLn0dbwOBQKBPBPhYyNJNN92UZIuMRXknAqERlzARkM7ryy4cmnAJmHgbCAyIgNUlWZL8fMcdd0zpMyOX8TvBDCIuYcIufN5556UlVenjeBsIBAJzRIBywwHuCR9BxO8EM0wTv8fkgQceSNnUvJrFowQCgcDwECBTZRkb3pXbcaWJ14jZrOwEuuuuuxIR/+hHP0rxw+3o3mhFIFAPBEQikS0bo7bYYouUqU2CIA8jjVIUE68RC7UR92gLMy8vO3GUQCAQGD4CZIuMkbUcazz8uzTzihNNxHbPGRAXXHBByq36/PPPJztWM7syah0I1BsBNmIyJo8xmSN7ZDBKUUysacIA8JSNhx56qPi3f/u3tE++jQPC1lLLPzlivc+v2pq3neZXn2XB8Fo+CJGY0Py9c6O8E4GMsS2+3pcPZ0+Hte9gmzH2ymzWRrw943Ft5+EKBx54YLHXXnulTR9lXGAxaWViiRixCFWT0tL7thYJWHbbbbeUntB7eWPlAGCfs+vJ1lOkoRD6NzoE8GrHZm6SYjt/4YUXkhYjCbgMW6+99loryWEY/Y9M4LnLLrukcK2tt9464Z2x3phN9PcTovsZd/DMWL/yyisJb8lzJFtnU21rzmttJ3vSZR5++OETvwV6IonYIGCvYqtavXp1EoZhCOIor0HoCfhmm22Wsl15RbBlkqX9ChVasGDBOiLmKHGu3zoQh/MctDBHJgZJXF7qbHBBCo888kjx5JNPFsjCZwhajmak0eaJbKY+hZnJTUiWCW7zzTdP+Pufpic3r8/kW8hkPBVrRGzCc/BXGJeZiC3dEXG5T+DvcK7zvPpt0zRn7SZ7nuqxzz77JPyyQjAT5m39biKJGMFIb2m3D3sV4mlaQcSEf2HnOWH7779/0nppYjQM+/oRMAIoE63fIIJ5Gtt57/+33r716n0WaK/lI0eXIIa1nWXl/fffX1xyySXpKdY84vl36YIT8Ad2sF20aFFxzjnnpD5Y2OkLuCNd5iDnlA+wZMy9z5ilV3h3PkO6/s+TIsIyXuEuzt3kZ2VCW7YNX194tH2+lus2oZA5smcMn3baaWl1ZtKa1DKRREy7k1GNxlF3EibskqXQapkYtt1228KSl7ZFG/OKeA1o2q7BTONFwtk2PKzB7boO9aHJ0Pxg6bj99tuLNWvWDOtWtb4ODe6II44o9thjj6T57rvvvsV2222X+gMJm+yGVRCySVD/ugfMac1WJCeeeGIyG3kvTtfKxauVC4I2QSLyuhayRwYvvfTSRMaHHHJIXataeb0miojzEu+hNQ8VV155ZXr6cuUI93EDAoxAcx5X7xEr8uXY2G+//YqddtopHTvssMM6jbePW8zpVPXL5g/3p4lbWdx3331JCyRYnmhNg2tj0R+26R5zzDHFhz70oeKAAw5IE1KVbYW5w4RsojUBlkteqcCdtvz000+n1QqHGFJmRtIfSJlJw3tyUJei3mRxwcIFxeLFi5NmrL2TViaKiBGFwfrwmodTrmEDs06FoO++++4pW5WnG1jqIjzLXYRME80ONq91GLA0cs4WWjli/spXvtLaBPpI+Etf+lKxbNmytEKpQ1pHY8C4ySYpmc6OPvropDUzZ3ieHO0YMdvZJnE7u3JdCm1e3m8ySTa1Q3smrUwUEet0e949BNTybtyF6QCBWepuv/32Sdth52WGQMK0H+YHWmjZtjjuepfvT1MzUeQJgh3TU67Z/9pUjjzyyOLkk08uli9fnvqGiaYOJdugkVeZwNiMKRoceuzYjsMOOyzZl61ifvKTnyRTkv6iVY+rZMf5vffeW9x8883FGWecsV47xlWvUd93YojYcoxTQ45hYWvjKISGBsM7jLgIDnODBy0eeuihSVgIOIJuWlFvkQJf/OIXU7s48yyDxynkw8BQX+inFStWFJ/73OeSrdbkU/dirOkTB03eUzL0BW34scceSzLgYbgIUD9ZLSJFcjIOxx/liMJhwmMLr8Nqb5R9PDFEzJFhiWb5QzMeR0G+tFy2Rct5mi/ni+UYBxyBb/IARFpMKJbuf/qnf1pcccUVjc/pTJM888wzU5u0rYmTZB7r2YxhtWWltffeeyebMjvtLbfcklaKtGXhcKMudtxx3DGdWCUi40kqE0PEOlhiH0sxGsCoCu3XTI9sES8bMO0EESNh3vC2FIIuaoCA06psAmGjZAYah5Y1F1xplJxj2oKIvWpbk4s2ZVMSc5KxyJmHfBEfRzA5QYgUFqaNUcWIu5d6kNEg4iaPslnqbgl2/fXXJ5vZLKcO9WskzOF29tlnJ/uXwU/ACYRdVm0shJr2zwv++OOPJ614VAI9LDxpvuz12mAF06YJs4wRhyMNGQmfcsopiYhFMTBb5Em0fH6V79mzySh5ER44SaX1GjGbGLOER7bQ0EYVKYGIli5dWoiNZAfmzUbCBLoJNsa5CAHN2ASk/bQcWlbTiFgfWbVog7Y02WQ0U1/Skk062mj15j17uBhpYYk0VDHibMhVF7JJRsmqTSsicti4J6G0noiF8HDO6Vye4iqLQY2ALftoUzzAxx13XNKo2k6+U3El1DRJdvmLL7546te1/1/9xW5rg/eTUIxRMesO4ZOUBz4NpjzESJYQclVmJptPyChZJbMmwiDilow89q7/+q//SttBq24SErYsZ1P8xCc+kezCBvWkCHIZXxokIXY0UZtsev3LfTHIe2PWjkH2WnHJF154YXK+ijyq2pln6zaZdW8mk0korZ3qheGIjsh78u0yqrKIA7acM2hpwRxyOedAlfet67WtDrRf6NRRRx2Vlrl2fTWhEH6asLo33UE3KN76T5QIkwVC5NTj2xBdwe5f5eqSrCJjsstGz5zXxMm8H+xbTcQE39LYLF6VbdgAoT2IoeXs+NSnPpXMEv10QpvPRWZnnXVWil9tChELWVNndZ/0wmbMPHDqqacmUwVSvOaaa5KZIscdDxsjskpmya4xY0IIIh42yiO6HnuTIHFHlY4ipgfOuA9+8IPFCSeckBwMI2piI25DcC1xOV6aUtRVndU9ytsIwEX0D1zYk23aEQ5aRSGzZFeIJyd32817rdSI7SDiYDBQ7GOvgogt3cpxpscee2wS3ioGZZOvSZta2AmP4sBsSlFXdZ4UR1Gv/QIPExR5clB22IuriBN3fbLL3Mfpzf9CO29raSURv9bpRPZh3lfbOasgYoNCZAT75yc/+clGEc0oB7PdguJC65Agp9d2q6s6t1nwe8Wi23nIGD5CE+2II2fDljHXI7uuTZbf1ZkE2twfrSTiX3SM/WZT8cPDHiB5YJqhJYExW1uqtX3plNvd76uVA2xs4ebQJLh1zZFrua2ejujP6XsaNsa8sa8v2XKrkDPXJMNkWd+0OYKilVu7eHTZl+zUqaLYp7/nnnsWxx9/fNoBZJBE6Y4AInawpdvmXecoBHVTR3XN9e7eqvjUmLf7jQyQBTJRRSHDdsVWGaVRRb37vWYridg++VtvvTV5XvsFpJfzBbv/2Z/9WUpfuVFHOyC0UWZGQAiUJ4xYSdS1qJs6qmuUmREw5o19KVzJApmootCI7eyTmKjNpVVEbMeP5YzZ03Jm2DmH2ajM/AafpzS8t7PUnrdBqyCsbKxbyiK4Oq8e1E0d1TXK7AgY+2SALJAJsjFsOy4ZltCeTJPtqnb1zd7aas9olY1YJ/HimkUFgw+7WLqyU1mKGXhRekeAA4yg1tn2qm7q2CTHYu89UM2ZW3RifMkCmSAbdrIO8wkgNpI48o4+G0zauAJtlTpnH7y4RnviqyiEVGC7XXNR+kNAUD4n2LA1pv5qMfPZ6qaO6hqlPwTIBNkgI1UUMk22R5F8qIr6z3bNVhExDy5bUlVELG5YIhKzf5T+EGB/FYdadyJWxzrbsftDfXRnkwmyQUaqKGSabNc14maubW4VEZstOeosY6ooYmJtf5XIJkp/CCBgS/86LyvVTR3rPFn0h/roziYTZIOMVFHINNkOjbgKdId8TfbhJ598shIiNsg8V44jJwS1/44joGyvdc4ZoG7qWBWZ9I9ac35BJshGfvbisGuOiMl21Znfhl3vXq/XKo34Nx0i5iyoYv+7rZaSvIf9sNehtf55HJ1Irs6TmLqpY51jnddHtV7/kQ0yQlaGXRAxB3wQ8bCRreB6v+3kl1jb2eVTRfC3XWGSj4SQDtZxQsPYXuuuEatjnUPsBkN/NL8iG2SErAy7IGLJ6YOIh43skK+XY4htoX355ZeHfPUiZQ8TnhOOnMGgRcB11oZzq9SxzpNFrmcdX8kGGaki0x6ZzikL2hhL3BrThETwPKqyrlVh0N+qE9Yk0UloS3WkgKhTHRAgG2SErAy7yFEsnphsk/W2ldYQMQI2a0qBWUXZrBNIzgbWBK2uivbHNQOB2RAgG2SErFRRyDYZJ+ttK60hYtqwHT3Dni0NLrGlPOlsYLFsbZsIRHuGhQDZICNkpYqYcbJNxtsYS9waIrZkYcgfNhEbWB4IamBFCQQCgdkRICtkhuwMs5BtMl6F6XGY9RzkWq3JNWGW1EnDNuQbVAsWLKhs6+YgnTZJvxGbygEkNaUnZ+gPAl7eHJIdtfqfxmQXlgdQet6ZpOJRRouAbc5kRl84hlX0sz5uo0bcKiJmOxq2RizJiIdIii+NMjgC+mU2+31e2iLfnJxdKNTee++d8gTbvUXIkTEPfd6lR0BpSYRe/lpPjrALy9MdctYu0TQyec02RtRx2GNocNSa+UuyQmbWdkJJh1n0i/4LIh4mqkO+VtaGZhP2fm+bySGcdP0it/75hGc2jzdN18Mily9fXpx22mlpeYuUTYaI16Ef9ImjXAhpJnv3cfC004jFoF577bXFzTffXDzxxBPTaml+73dtFPQyVlW/10f6cmofzfW+ZNtkS9bbVlqjEeskx7BNEwYT54OlcJTBEZBLFslN1z+0KEnZV6xYkfLb2qGFhOdqZyS0yFgf0rL/7//+L+2+7BZrnjVrdY0yOAJkBd7DJmL9k+V88NrV85etYZfcScOGOc/uoRHPDdlMxLTObgVJHnjggcW5555b7LXXXt1OGegzRC7Zu+cLslvSiBFzNyLOGnEQ8UBQr/tRlTJThbK1ruJjfNMaIq4KwzyoQiOeG8LZdDQdEdOAmSMQclXFtd3D8tZ22alF3dq69J3a1ir/JysmwFBeekd5fUNb77+bmDNzasRhL7MmBsDfN5SWyfY6HREzSyxZsiTZg6vChq3ZPdyrW1E3dQyNuBs6vX9GVpBxdqb2/svJPTOIeHL7fqQtn810xKYoqXiVWpRru4d7TVfauvSdrr3xeT0QCCKepR9oSZbVoSXNAtQsX4tgED6G6LqVbLqY7vtuv+n3M9eeyfTge3VU1yiDI0BW9Od0q5/Br9zeXwYRz9K3hNOgqpIgZqlCK77mHBPjO92EJoe0fLMiK6oqru0ewtm6FXVTx26OvG7nx2fdEchEHDLTHZ9un4azrhsqpc9CIy6BMYe3s2nE9913X4obXrx4cWUOO9ES3/3ud9Pj2bs1JTTibqj0/xkitvIIIu4du9YQMS/4Qw89lAZA782f/UyDyW6eGFSzYzXTGVIY5nyy3c6zHfn2228vVq5cWSxdujSFsLHl5mgVgu2greZNF3njhfSLDhs+xCPbeedQsnb2+OOPF7fddluxevXqrhET+Vx1VNcogyNAVvTRsE0T+p+M22m53377DV7BGv6y8UTMCeRYs2ZNErRhC1EmYgIdZXAE8g636XCUH+LBBx8sLrjggpQrAgkLN8uONaYL25W9Mh9kYlajTLy2P4sZti3aq8Ks5Hw766666qriBz/4Qfo/fTnlj7oxW6hrlMERIDNVmPPItsl0n332KU455ZQUldGWyIzGEzFtVR4Btr8qHi5oZpdAxn2iDI6APvI4dHhOV5gvHn300eKiiy4qbrnllqTh5rBBgu3IuQYIu0MRDeGgFSNuMax5Rx6tjObs3g4EPl1RN+eoa5TBEdCPJkz9NcziemScrD/77LNpohaS2IbSeCKmvTzwwAOpc2g+wy4E37KZNz1K/whYrSBDfWNCy+aEbleikTINOO6///5up1T6mbqpo7oieZNAWzSuSoGbcnGyIunSsJUXfaJvEDGZP+CAAyqNO5/SrEr/bXzUhKUkB4zOqaJYDrEvVkHyVdS3btdEwjRNOJo0sxZbt3qqj7qpo7qq87BtnHVscxV1gqGnqVcVfULWyfx00S9VtKnqazaWiGlaeckpq1a3LavDAM99CGidCWQY7azqGgiN/ddyFZZ1L+qoruqs7lH6RyDLS1X9TdbJPDMSDqjqPv23fPBfNJqICYvZ0TLWkrLKorMNsDZ0epU4Tb02QWFqeKVBNnZ1VWd1j9I7AqOSEbJO5sk+DmiDTDaWiNkThbLwtE/nie99CM1+Ju2IphTL1dmxKp/BTija4dedsLOmFHVV52HbOJvS/kHrSTbIyChWEmSe7OOAUcj/oJj0+rvGEjFtRSiLYxSaC6Fk8woTRa9D663zRCnQXJrk7FRXdZ4pwqI/FCbjbLJBRkYxgY1a/qvuwUYScZ55b7311pERMaGsu7Op6sEyyPUJppC0JoWEqas6V+VsGgTHJvwGEZORUUxgmYhxQBtWqo0kYt7SmQLzqxi0QcSDoSqelGNF/GdTirqqs7pH6R2BURJxrpVoJlzQ9AiKRhJx9pqOEnwhTRw4bbBH5UFc5SsHSo6YeOyxxxoV/ke41TlHTrTBGVRlX+drkw0yQlZGVXBAlVFTo2pHI4nYsvGyyy5L4SujAsqS62c//1kQcY+AIy+rCPZWhNwk27q6qrO6a0MQcW+djojJCFkZVRHChgtwQpNLo4iYXcgMSCMetTPFTP/0j58e+rbNJg+emerOjm9HoqNJJJzbpM65/hEpk1GZ+dUWZDJCVkZVTJS4ACfghlE47qtoW6OIWEevXbs2Ac+hMoowmQy6cCb3Hvb++Xz9tr0iMng5mkrETa7/OMZTlk+yMqqCA3ABMtZfTZXPRhGxpeKqVatS7OCoOjrfx4wrbpGHNsrsCFimCrrnSGmiXV2d1V0bmlj/2Xto+GeQDTJCVkZdxBPjBhzRxNIYIrbksOS54447Uu6HUYNtkLF9pTwEQ84qNeq2VH0/WgqsOLxoKk3ViNVdG7RllKuvqvuniuu/2pEJsgGrcSgr8sHgBhzRRPNEY4g479DyJIdxhULRjHjUfx1a8YyyzG733HPPpX6yTG2ijVWd1d1Y0xZtijI9AmSCbIxr9aCfcIM+G8WGkumRGOybxhCxGe/uu+8ea5A9rYgDZ5TOiMG6dby/kgLxpptuanxsJxQ5gLRFm6JMjwCZIBvjXDnYgIMjcEXTSmOI2BM4JAu39BlX4QiQ3m+UzohxtXWQ+wrzyk66G2+8sRU46Wtt4QjStghl6z4yrBqeeOKJsWqjuAFH4IqmlcYQ8V133VVcc801Y90YwPYlXtHTAaK8EwEkZbKC0XXXXdcaItYWbdK2IOJ39rtPrBg4zMZhH841YhrBEbiiaaX2RMwLyhNrxiUI47Q3WvroZA4c9QihXH+400i+//3vp6cnjLuv1q/Z4P/pZ23xRAhtG+eKbPBWVPdLMgAj2jAb7Tht6bmvcAXOaFIERe2JWO5RGdbsoBl34QTIkQA8xONyTIwbh273h4W+mulx9d1+15TPELG2aWP0+9u9BguTE2fZuE0TuVa4Amfoq6aU2hMxUC+//PJEgHUBlWPikUceGeme+rq0fbp6EEZOEmRlidq2ok3apo2hFb/du7RO2NSJ9ChLOKMOytvbSM38rrZEbJkh6UreSFGnSAWzP6GM7FxvDy4mmyuuuCIR1SiTvrxdg2rfaRMS1sYm2iCrQqeO2fVwRd5YgkNwSd1LrYmYU4y32mudcsOq07XXXptm3CZ0cpWDUCQBB42J6aKLLqqVZjTsdtP6tFFbtbmJG1WGiYmxTzZvuOGGtHFnmNeey7VwRZk7miCjtSVitieax5133lk7mxzvLC86m5jwpiZ09FwG9ky/tTr47//+79RPlqltJidt00ZjUpu1fVKLMW/skwGyQCbqVPCHfsIhTbDp15KIAWdW44W1xKgbkJx2lmS2VN57772N3FI5V6FBSgL4DXbL9YcffnjsUS1zbdNsv0c+Iii0VZu1HQZtnnymw8Q2YmOfDJCFuu1mwxm4A4fgkrpxyFRc50/9oA7/G+yWgQKzGd7rCKIdRFdffXWx6aabFkcffXSxySab1AG6kdVBn6xevbpYuXJlWqq30S48HZhiZmmAW2+9dTF//vzitNNOKzbccMPpTm/l54hYzC4ZGOduuunANT5xBw7BJeRUX9W11LJm7DtmWkufOpKwzqQd2f5q1rXz6qCDDip23XXXuvbzUOtlOWrJd+WVV6YwIRrHJGmF2qrNnpdmHBijhxxySLH77rsPFee6XoxJ5p577kljnwzAoI5Fv+AQXGKiXLRoUR2rmepUOyIWIP7kU0/WPleBegpe50lHSBtttFHSkN71rne1Ujt607K8swqgXdx+++1paW476aTaSQk5EwWnHe3QMb8zBrbbdtti087qaN4GtbT6zYmITEDaK6bamDf2x7mBo5fG5FwhO+60Y7HHHnsU8+bN6+VnIz+nVkSM3ByPPfpWHGAT4jXFKnpUy1ZbbVW8973vLfbee+9i8803H3lHVn3D1zrEY0n+zW9+M02Skqs0aedSVfjQuPJ2bk6rj33sY8WCBQuKjTfeuKpbju26SNjkI2rEmG+CfFpdiyk+7LDDiuXHLk/Y1ZGMa0PENArLPcKusw3wJhROCocHGG7Q0YJOOeWUYp999ine9773NaH6s9ZRn9AqEK/dSpJvs735LEqRnHd8GtkpBK+lS5cWBx98cLHddtsV7373u1sBk23D7K3swsZ60+QTpzAj7rzzzqlPrGDrVMZCxGxKDksdSzwkbLbV2exuQGtaQVImkTc7Fdc2WjGtiIOgjjPwTPiqf+4XUQFI5utf/3pyzMz0u0n+zsTkMA5OPfXU4tOf/nRxwAEHFDvttFMyWxkHJuomFatT44AzDold20l+dOEFF6Rx3qR2qCtOkc70qKOOSkoSEyIy1i/sx/pmnP2TDCYdwPHHyIrdLpb0NCv2Job/rFmyQSJkS4qmFZ272267Ffvvv39xxBFHFMcdd1yx5557phm4SWQMf8tsS1CPC0LGHHQ+jzI7AlZDHHdI2FhYvnx5GgdNWiWhBNq9cfCd73wn+QWMBU8toTQ1reywww6JgLdlw+9EUDg42JcsWZKceDvuuGMyL46jXTiico04a762HYo3JNSZaOVrQMRticU1QC3fPMzQRCPESWcjZ8vUrTrhTpvVyJlH2KxGOFzUVb31DWEjgDQIr0LTRjlXIzAebst6Gku+d34lLOX3/i9PdPm9VxodQjHpG3ujKDC0dLcqMoFRPAibcYCMhb1tueWWxWabbZa0slzfUdRtpntYoXrSxi8744B2bxxQkhCxcdAUc0S3NlLsysodbVhuce3aa6+9ikzUxh5fzzbbbLNOU+52vWF/VrlGnG2/lmzCvBjOAZIJOi+Bh92wcV7PEsdyh2mCZiTO2MFuSBhpznUo+gABEzjmB3HB2fGU+8XrVNKruu5nn3128YUvfCFhtcUWWyQydU/1UOf8HnEosM5kBvv8HolzKGrfv/zLvxSXXnppOn9Uf9RDHfISePvtty9OOumk4vDDD09mC2MBIY9zSVzGgiIBK/4AETEOEwnTBKwz9uXfNPl97pdsmkDGZ511VnH88ccXRx555MhsyZVpxDot70CynBFzqoMd7Kg0lFEX9jrLD3kizOy0lKqKAeswCWkzPGhkgt/f8573JK+6WdjMK9qC5kQ7slxC3nMVTITlIEAOGq8D7rRe2k5elVip8H5brZggaY3jCkmCw7777pucXYsXLy6QsI0ymQByu3K/+V/JxJvf5//hSKt2cKAZezKFjWrzifoZAw7FpMbcw16p740FmlfWxqyaaMvqazw4jAeHNuV2pYsN8AeOxgMzoD6Gg/Gg341PoYjGgrFhHIxSVsmBiWrhwoVpNUkxqLqU+8a9yClFxErdRiWx4UxLIqGMQ4RdVRmqaUJDzKoEXdY0jjce1hs7mjBiHmcBqFlOcLcZv0oiLrfTwHZwduQiqoINWZgTISR8SAcR0ZYRiGPqjC021RImE1Im/Ez6Xn2XP88CRyvMpgdCZ3Kg6ZiURoVDbvt0r9qKiNhTaYyEMpe5TEzwdLimcekwFjM55nuM4hX5GQflsYCAkI+VEw05jweasjGRJ+g8JpCx90iBtl3+PLchjwHymFc2eUyQTwRsTCBhhIuEbde2TB9X2WWXXdKKUZiZ1fMoiHhqWykqzKQOxHt8RzMmL/BSP+PTWKqCkIdKxDrZbGIf/iWXXJIICAmNY9BPBdlAByzbIyBp6uMqiJAmqrNpOwRKnRwEK2s/7FWcCzSnfK7vCBfNxivMDSDXQ6o+V7IwEsAskFkoEXTWjMaFwdT7aqNVwhlnnFEceOCBU7+e8/9s9bAj4EiIU7gOhZAjQGPCiihPvnlMTCVa4wVBI2pHtqP7XSYI8mayIXvaiWzLk7fxkMeEcWAMjWsVlPsAAf/BH/xB2p1qdTbuAkNPZDFpSvD0oQ99qDjzzDPTGKUwDbvMmYh1sMJJhdxonGxL4yS6MkgEXOzgwo7WYVajgRj4lr6WXgbrqIuB75ipEEBLxawVZUFDJmVyzYRKoBEyss19MtP16/YdQfzABz6QBro+G3bJRP/BD34wETIzUR2K/tJ3vRR9j6BpZTRlJGyCLmvGroNkEQlyzZqvMVPHkuXTRMl8iOTI6jjlE07wotjkFSO89ZNxanVtVavok2GUORExgc8d/r3vfS85Q2x/zZUfRgXneg0aJUcZM4BOdgDymGOOSfagcRBxL20yEGgzddHceqnzIOdkYjnxxBOLj3/844lgBrlOL7+xtHQPE5aNKSZDRNiUkuWNzNV13PaLpT4hi2SSWUYhq2T2+uuvr007mUvY9u+///6CM1ldkTMFaRhkPDARGxSWuBxx559/ftKAhYMY5HUqnCJMEuxvuXAIffSjH01avP3yUcaHAM3nk5/8ZLINW5pbCVRVXNs92KFNdBd0NieMwxZZVfuaeF2rVLJIJnMhq2RW3/Bl1KXgNvZj/hY29U996lPJoWdMzZWMByJiWoRlj8rwLn77299Olcv2yToABxhLN3bW/TqzrZk3F++Fkr3//e9PDgt2oCZpRrkdTX6lCVvenXDCCcWKFStSRAvtospiTLgHW7SVEUcMQmZWi/6vEvl3Xlv/m4TJIFnUH7mQTzJLdn2OAOtgbrMSEVHCyWmCYFbBeYceemjSjrVp0DKQ+kET/nHHASA289///d/T8rlOJAwM2g/Pu9l1506HIuVcCCQ7G03M4X2U0SJAizjnnHOKP/7jP059VO6fqmviXsaFe6uDukQZLQJT5a+sUeofMquPyHCVq6RBWo3rmAxxHw7EhThxLiUFxv1Dp/RyEU4AmrBYyP/oVII9WDhQHWarqfXnXbavnP2JE2CqtqXjcyQCQWQvbPLOoantr/P/NIg//MM/LNiFpSZkaxulsOl799P/hJ4GZlw36am/de7f2epGHkUhSJAlikk/lInYeysV0RO0z7WdMEvcU6eS7fV4g1PdOLJPIUc+9VPXr3zlK71vcXZjSwTLeOYI9rU6F4CYUR05rKdcX51t2cM2xYFjRtPxwsDqpt2X693k9yY8y00EfO6556ZNDeUl6SjbhohF0CAFjhfLTk5moV5z1W5G2Y4m3YtyZAMLBYnMmYSn6//Z5Lcu7RZ26BDdJDCAucX78sTSS117Nk2wobnhl7/85ZFvFe2lId3OMXnMpq0Dja1S/OqHP/zhNFC6XSs+mzsCSPiv/uqvkjmI9lAHk5A6qAsTlbqpY5RqEEDCZIyskTmyN1PpRX5n+v0ov7N9HjfiyEH8DT1bl3kwPULerjQG67YUBnazMs1IxwuEtyNQMqIoc0fAko2db7/99ks7G2Wks0qpi12W5uWgnRkLtGKhSsKUmKrqFgU09x4ZzxVkOaMJn3zyyevihcdTk2ruihNxo81s2YHXz51mJWK2Gss2duH//d//TTbhfm7QlHOF0dipZLlqCWVms0QdZHZrSpurrKelGRxpm2zCQn0Ioc/7XbZVWc98bRODaIq/+Zu/SQqHkExRQex/BGu2lVW+Tryuj4DJDbZCBoWpUXhm04TXv0Jz/uMvw5HGPcWDX6pX38esREwrwPR2zBmU484ZUWW3GDCWTJZP0hVedNFFSTOq8p5tvbbBiHiPPfbYpAnn54XVkYRzH+S62eWFLGjGUoFaCbZ53Of2V/FKnkSm2KDhfV1WQlW01RjBkbjyhhtuSGF5eZPKbPeblohpADyC4uU8KNBSTSBzm4sZjMFdrgOvtjQyW/Da2skEjyjTIwC/nE3M7qjTTz89kTABnEuM5fR3HP43yNgkrP/FiTqYLmxWEnfMmWuFGGV6BNjd4baws1VZ1JKt69IMWG22uYjswJG4EmdaYcMBHnmSn6790xIxk4RBZyfJt771rVptW56uMcP6HHhsm3/5l3+ZsnZ99atfTTsHg4hnRhhmJjHOGHldZZUzCJtCwuXWqbMJhD1bDmF5tAlX3bbwl+tcl/f63Zblz372s8WyZcvS5Gwym5Qi8ZkILHbxXXfddV1Y20zt70rEWRu++OKL06452uAk2UrZdcxgBhT7Jk2Ps5LNUE4NE1SUtxCwYuCMQ8AO4Tvyt27f0So36pBZkwUQGad8Ah0zCycjezdiyakSme16TdgzCeOFxsshJzGOXL7swWQIjrNphG3CB1fiTE88518wIVFSZsKgKxEbXJxVMlSxkU1iARo7Z45FFm9sqWVZKn+rrFY87JMYc8rOh6CsHJDT3nvv1dEaT05CiJQF6LelmEgc+dlmSEZUzZZbvqeTBOaRtAmE0NkQMqljAQGzqUs1K7sdMjYhT3JBwLiTLIibxyMzOSm7ErGnGFx22WUpufskg1luOxsX4jHLC22Tq9TGlnEm0y7Xb5TvkS+HFu2Qd9jya5uOTXWLjnZs9dDWom0mmhM6gqX9HDPsgTK5ebZbnRLUjKoPxF17ajXyZY6wS3EmwhlVvepyHw/I+J//+Z+UT8XDIKYr6xExr58QDEtwKejaFC88HQC9fk4LdGzXIRwagAGHkNiD4ARwW2RpR21y5pjRCZaJyIGIrAw8Z4sN1WecEr2G6fSKdx3P00Z4OLbpLLll9uPYg4HENWs7Tl3mCrvz8sNj26QlMzEYC8jX5KvtxoG279NZMe7S+dxTZKK8jQBuwKUwc+AN42dqWUfE7MKWVxK6C9vxIMko70TAQMukxG5I6ExcliEcOYTRJgAe1PLxzivV7xPmGMKWl+NekaxllfAjWg+hE1HQbTDVr0XV1Qgps39mxxQlRiIYoZ7GARliwpIroTwO2A+bEpNcHgfeM0cZC57/Jy6Y/wS5TMIkPOhI0v+4lN+EAuNxbUyeU+3F64iYTYNdWA4JS60osyMATOFanocmXOu0005LGpEnf1i2SiRtuep/wlj3QtthahDzm729NGArANofAkbMbTY/DNpHMMnOXWOBXRAx05Bpx8aD3NdMGVZNdS+Il8LB7otEjAekazw4jAfjYiqh1L1d46qfZ3figJxQfqois46IDRKPODKTI+QosyNgENISHAYpbYejU7wpwWO2QMTeZ2eOEDjLVa8+8+rw2yrImoYrhAxRmIm9dzCzGAz5cB6SZecrEzFhc24I3MzjgVaYsSVstF79zKFbJmLEJtZUf9OinePI740FShHzVh4XM9+5/2+RbB4X6mz85jGRX32GfNXXjkPvtUuUjN9G6Q8BnAp3HEsOpzoz1yFqC/M3vvGNFP/W3y3i7IyAAcqhZ7AawJJeI1dCx1aEoGnH2Yaoc9iWfYbAqyBigkWAaGvsUyYMtm0HzcZntBt1RrgGS/lAwEHCuYd7f4UZPNlRYSzqQv86EK/+FmtqXJQPY4OfxpLWeBGdM+xiUtbfNF5b+5kbjAdjw2fGi3obz+WxYLIJM8TgvaG/cSwMuxKx2Fh2TtqbmTnK4AjkwZq1hmwPzEtXmgUhJGCWqPl91oKQNm3I/97bWOOYrmSidD+H2da9CJDi/0yySNl7JghxjVmb97nf5DpPd6/4vD8Ect8YE/DNBe76wGoD+fEpWB0ZCw6acCZr40AxJhzGRD6MrTy+8rXLr+WxmMeFPlYX/6uD8UB5yO/9b2w4lJiEy4jO7T1uxbF5P4KQWOY+JWnE4oUFqbf9QZVzg3GwX+eBbIA7aBrdypsdsn2jcxC2vExNZNzRoHw3ncC5PoEjWI5MqoQtE0G3+8Vn40MgT5r6io9hppLJ1phw5Anbqwl6pnHBsTy/MyEbF9kUZVxs2Pk8ohtmQr2a78g2jsW1ONdkZxJUEhHbQWdJFGV8CBCMDX9PqoSF1pSFUK1mEjjfZ0JGypmAvUZpNgK5D9nyjQvjoEzAvYyLbmOj2ag0u/Z8R1ZBbO9WREoiYnZKy6Eo40UgEygyjRIIZARiXGQk2vGKhHEuv9x6GrElT5RAIBAIBAKB0SCAc230sPJVkuo13fJmNFWKuwQCgUAgMFkI4FzJw6RXVYKIJ6v/o7WBQCBQAwQQMXOw0FUljJE16JSoQiAQCEwmAjb7KEHEk9n/0epAIBCoAQLixpUg4hp0RlQhEAgEJhMBG3eUIOLJ7P9odSAQCNQIgXW5JmpUp6jKmBHgSLBpwDZsDgW7uHwmvtmmgrxVOnZoFQkn+SPEhsLK7inYif3NOx1tH84bbcbctXH7miIQRFzTjhl1tZCHI+czsGTi0c3PZUPE8lfYlilZkK3a5W2ziGZSNqKUsRIPKk8EnCR1QciIGRHb0g4riXRglfM8TBJWox7HTb1fEHFTe27I9ZaACPFKSCJnrqTmCAbRSDKDiJELMkEqAtEXdhJdS5t5RCfZ9Y6djF2S2ExCgdUzncxot3dSxnqQQn4YQDesbE2G1aJFi1KuZ8nUEfOkYDUJ42EYbQwiHgaKDb4Gr600jJ5TmJ9U7Zl8iHimQjuWPlE2Kb+XUN7eeWkVmS7aWJgebE2VK8BkJXe3V+lMacEzFUQs57fJznMPZd6yqqA1RwkEgognfAwgUZmgPCwWsWTTxGywIB4EJFnUjTfemB6jdMoppxTnnHNOa4lYjuArr7yyuOaaa9KTnDNWs5EwLGnNSPyGG25Ij8tZsWJFeuhmEPFsI20yvg8inox+fkcrOeA8idojXBCpxzrlmMZ3nDzNBwjIYUlOM3RNT5844YQTimOOOWaaXzXzYzghUa804rlgZcXB3OPpHXDyDDiOvSiTi0AQ8QT2PdsvxxJiWblyZTJJ0O7mUuwQQiyeKqF43JKngjTdTMEcQROG1UUXXZQee+WzuRQYyUuLzOHOxOMpKTkBzFyuHb9tJgJBxM3stznVmkmBZufJ0zRh2tkwCs3Y8/lc2/PvzjjjjGQ3Hsa1x3UN5gTmCG3SNm0cRoE57JGvnLQ0Y3bjKJOJQGzomKB+F3ZFm3vwwQeLyy+/vHj00UeTViYiYhglX9/SnR3VKy3Z500r6qzu5bbAblhtgTmNWB/oC30yzOs3De9Jr28Q8QSNAFqYZbboiKuuumqdGWHYEDBT3HrrrcluLMxrWOQ17HrOdD11Vne2b23JyVlm+s0g3zFT6At9om+GtToZpC7xm/EhEEQ8PuxHfmcamMgIS+KqC9une4m1nav9ueq6dru+Oqt7jiTpds4wP9Mn7tWvE3CYdYhrjQ+BIOLxYT/yO9uIsGrVqpEQMc2ONmnDA7uqB6A2pdCG1VndtWEUWioi1jf6KMrkIRBEPEF9LnfELbfckuyRVTc7xxmLn7Vd2hOqm1LUXWSJuveyWWMY7WIj1jf6KMrkIRBEPCF9jljE+CLFUWh4YM2EZtNIk5bc8kXIHZHzRoxiiOgTfaOP9FWUyUIgiHhC+puQW/aOioQzrO6L1OYae5uvN4pXdRVnPaxQtV7rrG/0EcyiTBYCQcQT0t+Em6Y16ggG5EKzbJLDTl3VedSTlr7RR0HEEyKUpWYGEZfAaPNbZgLEMqyY4V6xcj/3HvUE0Gv9up2nruo8Dqz0kXtHmSwEgognpL+RCoIZNblMCLxDaWb00VBgbORFgogb2W1R6UAgEGgTAkHEberNaEsgEAg0EoEg4kZ2W1Q6EAgE2oRAEHGbejPaEggEAo1EIIi4kd0WlQ4EAoE2IRBE3KbejLYEAoFAIxEIIm5kt0WlA4FAoE0IBBG3qTejLYFAINBIBIKIG9ltUelAIBBoEwJBxG3qzWhLIBAINBKBIOJGdltUOhAIBNqEQBBxm3oz2hIIBAKNRCCIuJHdFpUOBAKBNiEQRNym3oy2BAKBQCMRCCJuZLdFpQOBQKBNCAQRt6k3oy2BQCDQSASCiBvZbVHpQCAQaBMCQcRt6s1oSyAQCDQSgSDiRnZbVDoQCATahEAQcZt6M9oSCAQCjUQgiLiR3RaVDgQCgTYhEETcpt6MtgQCgUAjEQgibmS3RaUDgUCgTQgEEbepN6MtgUAg0EgEgogb2W1R6UAgEGgTAkHEberNaEsgEAg0EoEg4kZ2W1Q6EAgE2oRAEHGbejPaEggEAo1EIIi4kd3Wf6XnzZtXbLDBBoXXURb3y8co7zviAOvnAAAenUlEQVSXe+X6jgOrcfTRXLCK3w4HgSDi4eBY+6tstNFGxaabbprIeJSVRWYbbrjhyCeAubRxXHVGwvpIX0WZLASCiCekvzfZZJPiXe9618iJeP78+cXmm29ebLzxxo1BWl3VWd1HWRCxPtJXUSYLgSDiCelvwp3JZZRLbqS29dZbJ02vKVDTStV5lJOHPsmTVhBxU0bK8OoZRDw8LGt9pUzECObd7373yOqK1N73vvcVm2222cjuOdcbqas6q/uoyhZbbFFsu+22abIMIh4V6vW5TxBxffqi0pqw0xL2fffdt9h5550rvZeLu5/7LFiwoHjPe94zUu1yro2jCauzumuDtlRd3GfJkiXpvqO4X9Xtiev3hoBxpgQR94ZXK87acssti+OOO67Yb7/9Km8Ph9ORRx6ZjiY6n0Zdf32ib/RRlMlBYKeddkqNDSKenD5PJolDDjmk2GOPPSpvNXvnwQcfXBx00EEjd3oNo3Hqr+7aMAqn3e67714ceOCBjTLhDAPnSb/GdtttlyBIRMxbG6X9CLB5EnjmiT333DPZI6toNa1u0aJFxf77759Iv4lLbXU2YWmDtlSlqXKg6ot99tmnWLhw4Ujt0lX0fVyzNwRwLp9AVooSAzdx6dhbc+OsbggsXbq0+Pu///sk/N2+n+tntO4vfOELxeLFi1NM7CijNOZa9/x7dSYX2qAt2lRFQcD6Qp9EmRwE+CFOPPHE4uSTT06NToGS22yzTfGLX/yi+O1vfzs5SExwS3fcccfi6KOPLn74wx8mR9Rdd91VvPbaa3NGhDOQrfOkk04qjjnmmOK9733vyOOW59yI0gVoLdqgLT/96U+L3/zmN8X9999fvPjii6WzBnuL5JH7qaeemvpClEaUyUBAVAzOPeKII5LpS6sTEVuuvvrqq0HEkzEOkq14t912Kz70oQ+lzQM/+tGPil/+8pdpDPzud7/rGwXaoxl+l112Kc4+++zihBNOSMv5vi9Uwx8wHThOOeWUZCv+1a9+VTz++OMJqzfffLPvGiN3WG211VbFBz7wgeKMM84o9MUo7NB9VzZ+UAkCxhMzFJ/AXnvtle6RiPgv/uIviq997WvF1VdfXcmN46L1Q2DDDiHsuuuuxemnn55iZq+88srilltuKZ5//vlEMr3WGLHQ7lzHYZYfRXhcr/Ub1nlC2ZAxAr3qqqvSYRXRz8SFgMVxW40gYBqxPtAXUSYHgcMOO6z4zGc+k3wDudWJiIXNrFmzpqAZOX7961/n7+O1pQjM6wi/GEYzshAaZIpknnrqqeInP/lJImSk/PLLL7+DbJggEEo+LLPOPPPMFH5lKd/GDQmwsf2Y0w5WnHnMeTDKx1SThUnK5pmM0/bbb59WDcuXL08mCd+1EauWisycm2WjkNXPsmXLkqyUN1YlIjbIjj/++GSaOO+884KI5wx5cy5AS0MszBRMCmvXri3YjG+//fZ0mJiZrcrL8B122KE4/PDDk0YnxItd2CBzLeTT1qJ97Osf+chHkvbPXnzPPfckvFavXr2e7Tg7+2BlleCgAVuSInPXaqITs619O4p2UVjIGa7FueX+T0RMeIRRcEpw4Nx2223FY489Noq6xT3GjIDB4BDaRstjq6Qp77333smryyaanbjOc44BhWAcNGAaX5sJOHdRbn9OzCMMUAiSHXEclDTkN954Y92kRdtFusjbQSOGrYkvymQhIATSBicci2unyksiYpAYJIzHzz77bPIOW56+8sorxeuvvz5ZiE1waxEEYnEI21IQS46oQETOmTqIJhEyGJAZR96pyF4Mq7x6gJWJK8rkIkCxMXHjVpO1V8rL1LKOiH1BXRZOQwP68Y9/XDz66KNplp/6o/h/chBAOJbRuQQJZyTe+QqbsrZr4ooy2QhYAdmwI14Yt+LYbmU9IjaIsLXgctrwpZdeWtx7773FCy+8sG6W73aR+Ky9CCCTIJTe+zcmqt6xavOZZAYJWy0J6cSp3TThjMF6RJw/9GPhOoLYeYQfeeSRdzhs8rnxGggEAoFAIPA2AkjYKlJoolDFT3/607OmE+hKxC7JefPRj3402Qv/8z//s3jyyScLjpsogUAgEAgEAtMjQBNGwueee26yC/eS13paImZkzk6In//858VNN91U/OAHP0hxpRw4UQKBQCAQCATeRoBjVmww3jz22GMTCXN692KumpaI8+UlJfnbv/3bpFozUwhviw0fGZ14DQQCgUDgLQSEK9pVatfk5z//+WRV6IWE/XpWIqYZ5732wjAuv/zy4sEHH0xhbtEBgUAgEAgEAkWKqaf9nnXWWSlWGGf2U2Yl4nwxO6h4/eyyQs5C3Gx/9X+UQCAQCAQmEQFOOeaIAw44IO1M/fCHP5xSBvSLRc9E7MKyyX/84x9f92DFO+64o3j66af7vefIzo/Qq5FBHTcKBIaOQBPkFydK4pO3LucnbvQLRl9EjP0liLFVj+3D1lZkLGFQHXfgqVOq1wDpCvsFMs4PBAKBISLQkdl18jvEyw7rUqwC/GdIWI4WuVfy8+cGuUdfRJxvYKeI8AxbYanltkXb9JG3wubzxvlqu+lLL72U6vXrzuYU2caAZ5aNEggEAvVEwPZwBExmcQoZ7ifV6ChaZeObEDVZ9DjmvM41i95ARKyxKmPftApIaHLZZZelZEGjAKKXe5gUbr755pQRy0Rx1FFHpWe1ienr1ZPZy33inEAgEBgOAgjXU1AefvjhxCXXXnttym5XJwVPS2XRW7FiRdotRysub2sfFImBiRiZebyLSAqasdhicXQPPfRQmsnGHWvs/lI46lhORUmMbEpZ2ElDaOJQZ20IDXnQoRO/CwTmjgANGAHbq/DMM88UaztpWKVVYPK8++67i+eee27uNxnCFXAbLRjxyhkh/zargM+GUdI6vQNG/898+f3d3+yA+Ebn+NnPflbceeedxT/+4z+m53rVJdYY2TJJmLXYcMxksiDZesjmHdmxhjGM4hqBwGAIUJhEXnk6zHXXXZdW1gIAmCdownUxS8i3Ld3p3/3d3yV7sKx7nqzC5DnXwtQ7ZyLOlXi1E872k05uiu9///sJVMCa3TwLrS6FPVteUHk0HAzt+XHpQcp16aWoR9sRyOTr2X+S63sIgY1iDnnQrWDrUmRLwxUUN0dK3tMh4U032WRoVUTEA5smptZi407FPDwyH0wWq1atSvYeCbPrMLPpYMseB9v22s5EYeljspDkPDsfac9hspjaw/F/IDA3BGi5nG/MEPw2VtD8OCtXrlz38IG53WF4v7aS9gAED0hAvh/84AeTn2l4d1j/SkPTiMuXBTaCu/XWWwsG90suuSTZasvnjPs9oD09gY3HM9iO7zy+xCEMRQcMwwA/7jbG/QOBuiDAhPl8R+Gh/TJB3HDDDeuimihCdVDUylhx6osNlkeYo58pAk9UUYaqEZcraHsfjVjxiux0AG8o59m4HXnqpePzQx/9z0wu7afntXmgpoN2b2kSGjKEogQC/SFAA0aynORMDtLpetjEfffdlxKI9Xe16s+mnCFgWrC9Eh6qbEcxB3/VvqRKNOIyZBLMI7x//4//KL550UVJU+bI00l1LbRi8YGeL6VTTCTIeH7HczoM43xd2x31CgTmigDN9/WOA46jjSkQ+X73u98trrjiiqSMzfX6Vf2eQ5/SKI3DOeecU/z5n/952rCWFcqq7uu6Q3XWTVfRsmFeGk2dQjs2K9a12DEoxM12RSAh5oMPPjg5+jj8qp4d64pL1CsQmAkBso58ab9Cz4Sg0YBFVImEoJDVtUhdefjhh3XMkyekvBEe8DkqB35lpoky2EjLrKKhwsfYWSz3mS+YKhju61bKJgt15FgQkyy7kjZw7LEZaVfYkuvWe1GfUSJA87XqFadPThCu7Iwc4pxxPqtz4aDPDrn3v//9hYMiNupSuWmi3CB2WR33405nPdAJW/nyl7+cIivK59TtPbtRMkt0li46yK4aSZ/tL99tt92GFtBdt3ZHfQKBXhCwDZmSwvnm4RF8LBSZusUBT9eWZcuWFX/913+dYoTlEibrZH6UZSSmiW4NsnwR0nbbbbel5cs999yTEgd5cnSdi5A3mjAnHgO+V049W7114radaIuwIde5B6Nuc0WADfjnHdklq7ReNuCnnnoqhYJ6pRlLkVvnwuxIbg899NBkduSYEynF7DiOMhLTRLeGabADeSExIW5MFswYwt7q2pHqxQPssHGFYd+GEIOP2SJpyELiOm3JtuRRz67d8I7PAoFBEbCKzbbfF158sXih89xKGjDzAy2Y30e0Ud3Cz7q1NytS/D1MEKeffnoi5DrI6EhNE93AYV/yUFJGfRtA/qMTXaGjm1AY8219FFXhVe4NHWyGZcLweS8PDmxCW6OOk4mAcFPmByYHK9jvfe976yKffC4CqikPh5Ab4k/+5E8K5ghaKFPjKKIiZhs5Y9OIyxUDhANh0SLF85pln3jiieR9rbOn1QB05G3clmbMLnbs8Rhz7DFf2CJJe7aBJHbslXs/3tcNAfJHMaLl2nJsTHPAiYTguJbUy4atphRkK63B7rvvnlavNmh4Pw6H3EyYjV0j7lY5s69tj1Jr6nhkZ3nUhOVPbg8zixCYQzp2qJNOPDGZYNiVs+NP3KIlURBzRixex4EA4iVXnGvZwUaRYP+97vrri7s6kQ9yQpC/phRy5WCK2HfffVOir9NOOy2tUuvYhrE562YDg4ZpFmauEHN8fWdAmJ3rGOo2XVsQrBA9oXocfLRhpgvPtmJPlk7P51YBUQKBcSFgBcfHQdYoPeJ/hZzRin1OFmnACLsphbbLX0P7ZSZEdFanZLGOpRamiW7AAGzLjn2VTYeHE6ExV/DQMlkYGHXXjg3cFzvODQfnnsJmTNvI2z2ZK5CzNho8eWt4HZwH3folPms2AmSGT4b8MPnJ/8s5zgyBiHP8LxJuYqHUMEMgNsqOvMFeN+98XvdoplqaJvIgyNslmSbYp2Rq+n//7/+lpZLPmlZoyUwS+UC4gsnlSObJtYxCzJZUUQKBYSMg6gfxZs2X6Y9cIWimh2yaaJL2W8aI6e+LX/xiSk0gPI0cNSEtQW1NE2Vw83tLpBy7aCAZQMwWdY89zvWf7pUmrCMQMA3ZtmoDCkHTlO38oUmHljwdgvF5NwSQq6iG/OQL8mI1ZrsxDRgh04Lr7Azv1q6pn9nlKh6YvEjcLlopJ+uaem5d/28UEZdB5DwQlXDppZemnBWW/wYde1eTC01ZPLXt4EccccS6DHA54sJ3okuEzTmiBAIZAStEh3Az8pAjH0Q9MOlRWiRh9x3Nt8lFqChZoKCQFQm6pKpExk0sjSVig42dy6y+Zs2aFH8smRBPb5ML04VoCwMt24sRrkgL8ckSVIvEYDunCUQJBDICHGx8EZQUm43E+0ongJyzXVjMLxNEU00Pua3svp6WIU0lLZiigpjrEBOc69jPKyIe2hM6+rnxXM+lFTo49WxNdNilZ5eb5ZcIiyaaLAgIbYV27ygXAqVNCJj5wuE9k4boCyaOLTpOzflj2Ctfrme8rw4B5obXO+T64u+dbdnEwOnG5OBAyMwQzHdtKuRbPD6zHfIl6w7j30qy6aXWzrp+wDXbW4aJP7b1MmsE2QHRz7WacC4tmfmCfUzyarOqwUqTzrHK7Mo07A06mnYnYDlilpvQsb+vo0kZ8U51pFkJmpDZd3OGM2YHE3XbSh7HeUUo0ZZ4YDZgq8a2lMaaJrp1gCWXJRiNwBZpSzTJhGwOMWAt09pUkCwt2CFG2dIMCRugtAbLNwOW1kxjzrblNmHQ1rZQHnKEA/ObQ/5u5EvhQMbZLyJ5Focbwm5TQb7sv6KJPOSXSU5ssPHMBEHBaEtpFRGXO6W8P15OVI49G0Qs5Rx1TSpUbsMg75GzQWoJZ8MIIhbInp19nBuJtDuvYiuRdrZBxw6/QRAf/Dc03mzDTeTacTS/2DFHcbIhWQcCplh45WgTf07ZaBvpZhSFmxmrDuMWCecMacYuZaKNpbVEbJDngS6SQggPZx6TxY033tioHXr9Drzs8GM3W2ea6BA0OzpiZsZA0jQM/9OWIzyuX5Tnfj4y5Qewe41JzQqO49kqzv/5yedl00QbHG0zISdU8/jOA3yZIJYvX/6Op6q3VVloLRGXOzsv8wxujjzLO4eQHss9gjAJhabMdMG5wZzB0cmcYTcSTcSST9xy/t53zvG937ZVCKrqe4oA7ZUiIAaehuvViszqzGFl5vv8HRMD7ZfpwW8noVAEbPu3AQMhOZjWKAlpQ0YLHHGz9eNEEHEZhGxH5lWW0k8OC4RcFpby+ZP03tZQwiAzFTIWlWGJSJNGykwYBMPhPY2bHY+tLh808LYTNoLNWqrx5MgOYQ4z5OrwHsHSbJGviAYkK8SM5mvcTWqhEDCReRX7e2InKZacEN63zf7bSx9PHBFnIaJt0DoIh1A3eSw8ZRY5T2rJIYHZqZeJ1iuiFZEhftlBi8lETWsmUMiazRkRt5WMjR8Hmy6SNYbYdJm+kG2O5UW2IhvKJI2sM1HzYUyKxttNnux+kweC/ZeJzFgyhpDwJEzmUzGZOCKeCgDhsFwUZbF69erkECFQyFlyIZpyG8OCpuLQy/80YwLjQL7syo5suiBEeSmZzRpI3efZKUiTzs5B2rQD0TsIYLZpV0XkSBQ50mgd+j9rsxxn2Xmmzx0IF2EizmxecD6N1+eOTMoImWkhx/PShKMUqb+NEeYGTmSTuJwqHHFWYcaV/p/kMvFEPLXzaTm04+uuuy7FI7PjEbAssIQ4yvQIIFJES3tm4sjkzQmDnBF31pyRs/eZwDMx+/1UIp4aqjT1+1wjRFsuU/vL9wg2k24mVP2OUDOpcqL5jKaLWJGqiZmW6/dIPMr0CGRTlT7V5yIgxP+edNJJyR6s36O8jUAQ8dtYpHcElBCy5dmtlAPnkbPwoaY8wmlKs0b2L4JExlkLzvZkr4SSgObXrAlnoc2/9ftycb5la/l8732eCRnB6jsTZjYHeM904PNyydpw1o7L53vv/Pyabb1es3bs91MJv3z9eF8kRxut1843dl/xv9kRjJj1XZS3EQgifhuLd7wjcDShtZ1ICxtCRFhwsNCQM0m/40fxwdARoCHTnqcSuP8zaeurTMSZjP2PPGmwUapHIEfdWAUxOdiMIRrCyog5IvdV9TVp3h2CiGfpMwKeNSZLVZoyUpbH9ZJLLpnl1/H1sBAoC3HWgl07vy9rqOX3+i/KaBA488wzUxY02+5pv1YxefIs999oatOsuyDiybaSz9JfBpDDgLIc5nyinXFYeRIsGyI7cn7QKa95lOEjEIQ6fEznckUaLk0XgfAH8AF4LwKCZsw5R2ai9I5AJxtMwea1vpej999P7Jk0ZTZkMcl2Q4m68N5ymG0yR1w4L0og0FQEKCLMQzRcB0WE6UEI2uGHH552aSLjqQ7VprZ3HPUO08QcUDd3sT8KYcobQmjHyFh+C8TMlsykESUQaCoCtFsbe+TCZnbgfGN6yPHjHLPdIl2a2t5x1DuIeIioZy89LZmpAiEjYuYKIVCC/NmYEXdoyUMEPi41NARov8xvdlaK+WWC8z7H/tKEab85imVoN57wCwURVzgA2DVtAshRFx58SlOW28IGgewE9BqWoQo7Ii49IwLlkEJhhvKQMDkc30m+c+CBB6aNGLRfJB2lGgSCiKvBNV21bLpAyLRiJExDloCI1oyYacqIOci4ws6IS3dFgEPNlnV5HjjfJNrJGjBzBAIO00NX6Ib6YRDxUOGc/WJiW22DZb6gKcuTjJDz9lmbSURisDkzYUQJBIaFQDnip/wgAQSciZjZgUYcEQ/DQr236wQR94bT0M6i9TqYI7JpAvnSktmU7eDz2BtpOjn+ogQCw0KAnVd4mYdu2mjB6Ub7RcpCM8s7HHN89rDuHdeZGYEg4pnxGcm3Ii+EvNnFx3zBwceEQTP2HiEzZTh8HyUQmA0BTjZmBoe4XiTM1OCV1pvTmwpFE/EQZbwIBBGPF/9p7/5qJ7fBSx3zBM2Ypix/7YMPPphyXSBuNmUH80XOhxA25mnhbO0XSJSDDaEyPeTcHiIePLPQk1gIucxnNF/23ij1QyCIuH59kmok4sKRyTbHKstzwYwhTafnlyFnNmafMXVEmRwERDHQbNl4JdcRWia5jkxnSDenJ80EzfwQkQ/1HB9BxPXsl661ovHShjn2mC6YLTj9vDJZ+Jy9GVnLqeycvLuv6wXjw0YgwHFGk80mBiQrg5mIBo41n9OAbbJgkpB0JzZYNKJr11UyiHgdFM19YyMJzVkYHE1ZNIaUnXfffXciaTv7kDgNm9acX0ODrlefZ2cZrdV7r5xmeWebp1l48CszA+IVdkbbpelGaTYCQcTN7r9U+xyFkc0XtGCasTC58qN87OrLeZaZM5B2lPoggFyZGXLeXhENNF4asJ1sNN1scshmB4QdEQ716cNBa4KIYzodFL2a/I4g0oo89aD85AMETVtGzCIw8mYSpoxMxOKaOfuy88+rCA5E7qA9u06UwRHQP7Tb3D8ca0wNjmy/ZX4oE3E2QyBfpOv7INzB+6AJv4zsa03opQHriETzkU0SXh1ImD0ZSXP2OZC0p5BwAj7wwAOJpMOEMSD4v/8ZrVU0gydki2JAuMLKhJEhXCkkabrIFmFPNU0g4CDhufVB3X8dpom691CF9UPQWRvOaTu90oSRMwdgObsczZq92eEczkFE7pUZBLlPUkGOCJTTjObqNWu9TAk0WQcNGBE7J5sXfO9cr1krDrKdpNGzflvDNLE+HhP1H8FHAg4kMrUg6vy4IYSLbG06ySTN3szc4dWmk7IjMGvdPnPkxxeVz8nfeUX44yiiC7JjLL+Wd5nl97DyfT6y1mqDBFsuuy7tVtQCu24mZrgi44hiGEfvNuueYSNuVn+NrLbIZ6OO7TlpbR17piU0Qn0dsXbMGsgTUeeDs5B9meacbc5lDbucMJ9Wjdx9huCF241ao0am2RlmMkKYwsJ8RlulyWqz9pdt8FnLZeP1OZMConXM77yf3yFsn+fDfULbHdmwbeyNgogb23XVV3xeh0TmOzrE0llfz3hDxOxAwpmks/MP8WZyZg7JpO19juzItmw38T7bsbN2nV9nrMTvv0R+5SPbXzMhenXkKATfI2Pkms0F/kfIzAraX3awZeLtpS5xTiDQCwJBxL2gFOfMikAmJ0Q2SEG0CFhhrqBpZ1L3XSb3Xq6dtVRkrF5I1WdMCwoS9l2UQKAuCAQR16UnJrweWUsFQyZKmigSVspEnT6Y4U/+vVMQbrb/+jxKIFBHBIKI69grE1inMklmIk0mkQnEIpo8eQjE+mzy+jxaHAgEAjVDIIi4Zh0S1QkEAoHJQyCIePL6PFocCAQCNUMgiLhmHRLVCQQCgclBQHSQEkQ8OX0eLQ0EAoGaISCmXgkirlnHRHUCgUBgchCQIkAJIp6cPo+WBgKBQM0QkPVQCSKuWcdEdQKBQGByEHj88cdTY4OIJ6fPo6WBQCBQMwQ8oV1JRJwNxjWrY1QnEAgEAoHWIoB3PV9SSUR85513trax0bBAIBAIBOqIwB133LE+Ed9yyy11rGfUKRAIBAKB1iKwatWqdW1LGvGNN96YnrKw7tN4EwgEAoFAIFAZAp4PiXdzSUTMYHz11Vfnz+I1EAgEAoFAoEIEVq5cWWRHndskIvbmsssuK5566ilvowQCgUAgEAhUhACexbflso6I77777uLiiy8ufxfvA4FAIBAIBIaMAJ7Ft+Wyjoh9eOGFF65ntyifGO8DgUAgEAgE5oYAuzCenVrWI2L7ns8///xi7dq1U8+L/wOBQCAQCATmgMATTzxRnHfeeUXOL1G+1HpE7Isbbrih+OpXv1p48m6UQCAQCAQCgbkj8PLLLxdf+9rXprU4pMfabrPNNv9QvtV9992XHuB4+OGHr3vybfn7eB8IBAKBQCDQGwKeRv7P//zPScGd7hddidjJq1evTo81P+CAA4pNNtlkut/H54FAIBAIBALTIEATRsL/+q//Os0Zb308LRH7Ghm/9NJLxR577FFstdVWM14ovgwEAoFAIBB4GwE24X/6p3+aURPOZ89IxE5ipvjhD39YbLnllsXChQvz7+I1EAgEAoFAYBoEREcg4W9/+9vTnLH+x7MSsdMR8e23315Qs3fcccdEyutfJv4LBAKBQCAQsFnj61//evGVr3xlXUKfXlCZ56RFixa92cvJzjnkkEOKs846qzj55JOLXXbZpdefxXmBQCAQCLQWAbkjbFu2Y27qZo1eGt03EeeLLl68uFi+fHmxbNmyYunSpcVGG22Uv4rXQCAQCARaj4B8wlJZyqLGFFHOHdFv4wcm4vKNlixZUoiu2GeffYoFCxYUu+66a3LucfDNmzcvHeXz430gEAgEAk1BwCPvka6NGJ4x5/FGSFdS95zYvSltiXoGAoFAIBAITIPA/wcbrH9M6Cn4VQAAAABJRU5ErkJggg==;" parent="1" vertex="1">
                    <mxGeometry x="580.99" y="700" width="39.01" height="40" as="geometry"/>
                </mxCell>
                <mxCell id="jIKosQApK3H3hRsS3cyc-31" style="edgeStyle=orthogonalEdgeStyle;rounded=0;orthogonalLoop=1;jettySize=auto;html=1;entryX=0.5;entryY=1;entryDx=0;entryDy=0;entryPerimeter=0;" parent="1" source="jIKosQApK3H3hRsS3cyc-28" target="jIKosQApK3H3hRsS3cyc-22" edge="1">
                    <mxGeometry relative="1" as="geometry"/>
                </mxCell>
                <mxCell id="jIKosQApK3H3hRsS3cyc-32" style="edgeStyle=orthogonalEdgeStyle;rounded=0;orthogonalLoop=1;jettySize=auto;html=1;entryX=0;entryY=0.5;entryDx=0;entryDy=0;" parent="1" source="jIKosQApK3H3hRsS3cyc-18" target="jIKosQApK3H3hRsS3cyc-28" edge="1">
                    <mxGeometry relative="1" as="geometry">
                        <Array as="points">
                            <mxPoint x="320" y="720"/>
                        </Array>
                    </mxGeometry>
                </mxCell>
                <mxCell id="jIKosQApK3H3hRsS3cyc-40" value="MER - Confluence" style="swimlane;fontStyle=0;childLayout=stackLayout;horizontal=1;startSize=30;horizontalStack=0;resizeParent=1;resizeParentMax=0;resizeLast=0;collapsible=1;marginBottom=0;whiteSpace=wrap;html=1;" parent="1" vertex="1">
                    <mxGeometry x="860" y="205" width="210" height="330" as="geometry"/>
                </mxCell>
                <mxCell id="jIKosQApK3H3hRsS3cyc-41" value="14 - IDP Design Docs" style="text;strokeColor=none;fillColor=none;align=left;verticalAlign=middle;spacingLeft=4;spacingRight=4;overflow=hidden;points=[[0,0.5],[1,0.5]];portConstraint=eastwest;rotatable=0;whiteSpace=wrap;html=1;" parent="jIKosQApK3H3hRsS3cyc-40" vertex="1">
                    <mxGeometry y="30" width="210" height="30" as="geometry"/>
                </mxCell>
                <mxCell id="jIKosQApK3H3hRsS3cyc-42" value="&lt;p style=&quot;margin: 0 0 0 40px; border: none; padding: 0px;&quot;&gt;&amp;lt;App Name&amp;gt; (Folder)&lt;/p&gt;" style="text;strokeColor=none;fillColor=none;align=left;verticalAlign=middle;spacingLeft=4;spacingRight=4;overflow=hidden;points=[[0,0.5],[1,0.5]];portConstraint=eastwest;rotatable=0;whiteSpace=wrap;html=1;" parent="jIKosQApK3H3hRsS3cyc-40" vertex="1">
                    <mxGeometry y="60" width="210" height="30" as="geometry"/>
                </mxCell>
                <mxCell id="jIKosQApK3H3hRsS3cyc-43" value="&lt;span style=&quot;white-space: pre;&quot;&gt;&#x9;&lt;/span&gt;&lt;span style=&quot;white-space: pre;&quot;&gt;&#x9;&lt;/span&gt;&lt;span style=&quot;white-space: pre;&quot;&gt;&#x9;&lt;/span&gt;App Context (Page)" style="text;strokeColor=none;fillColor=none;align=left;verticalAlign=middle;spacingLeft=4;spacingRight=4;overflow=hidden;points=[[0,0.5],[1,0.5]];portConstraint=eastwest;rotatable=0;whiteSpace=wrap;html=1;" parent="jIKosQApK3H3hRsS3cyc-40" vertex="1">
                    <mxGeometry y="90" width="210" height="30" as="geometry"/>
                </mxCell>
                <mxCell id="jIKosQApK3H3hRsS3cyc-44" value="&lt;span style=&quot;white-space: pre;&quot;&gt;&#x9;&lt;/span&gt;&lt;span style=&quot;white-space: pre;&quot;&gt;&#x9;&lt;/span&gt;&lt;span style=&quot;white-space: pre;&quot;&gt;&#x9;&lt;/span&gt;LLD (Folder)" style="text;strokeColor=none;fillColor=none;align=left;verticalAlign=middle;spacingLeft=4;spacingRight=4;overflow=hidden;points=[[0,0.5],[1,0.5]];portConstraint=eastwest;rotatable=0;whiteSpace=wrap;html=1;" parent="jIKosQApK3H3hRsS3cyc-40" vertex="1">
                    <mxGeometry y="120" width="210" height="30" as="geometry"/>
                </mxCell>
                <mxCell id="jIKosQApK3H3hRsS3cyc-45" value="&lt;span style=&quot;white-space: pre;&quot;&gt;&#x9;&lt;/span&gt;&lt;span style=&quot;white-space: pre;&quot;&gt;&#x9;&lt;/span&gt;&lt;span style=&quot;white-space: pre;&quot;&gt;&#x9;&lt;span style=&quot;white-space: pre;&quot;&gt;&#x9;&lt;/span&gt;Drafts (Folder)&lt;/span&gt;" style="text;strokeColor=none;fillColor=none;align=left;verticalAlign=middle;spacingLeft=4;spacingRight=4;overflow=hidden;points=[[0,0.5],[1,0.5]];portConstraint=eastwest;rotatable=0;whiteSpace=wrap;html=1;" parent="jIKosQApK3H3hRsS3cyc-40" vertex="1">
                    <mxGeometry y="150" width="210" height="30" as="geometry"/>
                </mxCell>
                <mxCell id="jIKosQApK3H3hRsS3cyc-49" value="&lt;span style=&quot;white-space: pre;&quot;&gt;&#x9;&lt;/span&gt;&lt;span style=&quot;white-space: pre;&quot;&gt;&#x9;&lt;/span&gt;&lt;span style=&quot;white-space: pre;&quot;&gt;&#x9;&lt;/span&gt;&lt;span style=&quot;white-space: pre;&quot;&gt;&#x9;&lt;/span&gt;&lt;span style=&quot;white-space: pre;&quot;&gt;&#x9;&lt;/span&gt;1. LLD 3" style="text;strokeColor=none;fillColor=none;align=left;verticalAlign=middle;spacingLeft=4;spacingRight=4;overflow=hidden;points=[[0,0.5],[1,0.5]];portConstraint=eastwest;rotatable=0;whiteSpace=wrap;html=1;" parent="jIKosQApK3H3hRsS3cyc-40" vertex="1">
                    <mxGeometry y="180" width="210" height="30" as="geometry"/>
                </mxCell>
                <mxCell id="jIKosQApK3H3hRsS3cyc-50" value="&lt;span style=&quot;white-space: pre;&quot;&gt;&#x9;&lt;/span&gt;&lt;span style=&quot;white-space: pre;&quot;&gt;&#x9;&lt;/span&gt;&lt;span style=&quot;white-space: pre;&quot;&gt;&#x9;&lt;/span&gt;&lt;span style=&quot;white-space: pre;&quot;&gt;&#x9;&lt;/span&gt;&lt;span style=&quot;white-space: pre;&quot;&gt;&#x9;&lt;/span&gt;2. LLD 4" style="text;strokeColor=none;fillColor=none;align=left;verticalAlign=middle;spacingLeft=4;spacingRight=4;overflow=hidden;points=[[0,0.5],[1,0.5]];portConstraint=eastwest;rotatable=0;whiteSpace=wrap;html=1;" parent="jIKosQApK3H3hRsS3cyc-40" vertex="1">
                    <mxGeometry y="210" width="210" height="30" as="geometry"/>
                </mxCell>
                <mxCell id="jIKosQApK3H3hRsS3cyc-46" value="&lt;span style=&quot;white-space: pre;&quot;&gt;&#x9;&lt;/span&gt;&lt;span style=&quot;white-space: pre;&quot;&gt;&#x9;&lt;/span&gt;&lt;span style=&quot;white-space: pre;&quot;&gt;&#x9;&lt;span style=&quot;white-space: pre;&quot;&gt;&#x9;&lt;/span&gt;Final (Folder)&lt;/span&gt;" style="text;strokeColor=none;fillColor=none;align=left;verticalAlign=middle;spacingLeft=4;spacingRight=4;overflow=hidden;points=[[0,0.5],[1,0.5]];portConstraint=eastwest;rotatable=0;whiteSpace=wrap;html=1;" parent="jIKosQApK3H3hRsS3cyc-40" vertex="1">
                    <mxGeometry y="240" width="210" height="30" as="geometry"/>
                </mxCell>
                <mxCell id="jIKosQApK3H3hRsS3cyc-47" value="&lt;span style=&quot;white-space: pre;&quot;&gt;&#x9;&lt;span style=&quot;white-space: pre;&quot;&gt;&#x9;&lt;/span&gt;&lt;/span&gt;&lt;span style=&quot;white-space: pre;&quot;&gt;&#x9;&lt;/span&gt;&lt;span style=&quot;white-space: pre;&quot;&gt;&#x9;&lt;span style=&quot;white-space: pre;&quot;&gt;&#x9;&lt;/span&gt;1&lt;/span&gt;. LLD 1" style="text;strokeColor=none;fillColor=none;align=left;verticalAlign=middle;spacingLeft=4;spacingRight=4;overflow=hidden;points=[[0,0.5],[1,0.5]];portConstraint=eastwest;rotatable=0;whiteSpace=wrap;html=1;" parent="jIKosQApK3H3hRsS3cyc-40" vertex="1">
                    <mxGeometry y="270" width="210" height="30" as="geometry"/>
                </mxCell>
                <mxCell id="jIKosQApK3H3hRsS3cyc-48" value="&lt;span style=&quot;white-space: pre;&quot;&gt;&#x9;&lt;span style=&quot;white-space: pre;&quot;&gt;&#x9;&lt;/span&gt;&lt;/span&gt;&lt;span style=&quot;white-space: pre;&quot;&gt;&#x9;&lt;/span&gt;&lt;span style=&quot;white-space: pre;&quot;&gt;&#x9;&lt;span style=&quot;white-space: pre;&quot;&gt;&#x9;&lt;/span&gt;2&lt;/span&gt;. LLD 2" style="text;strokeColor=none;fillColor=none;align=left;verticalAlign=middle;spacingLeft=4;spacingRight=4;overflow=hidden;points=[[0,0.5],[1,0.5]];portConstraint=eastwest;rotatable=0;whiteSpace=wrap;html=1;" parent="jIKosQApK3H3hRsS3cyc-40" vertex="1">
                    <mxGeometry y="300" width="210" height="30" as="geometry"/>
                </mxCell>
            </root>
        </mxGraphModel>
    </diagram>
</mxfile>